<svg width="23" height="30" viewBox="0 0 23 30" fill="none" xmlns="http://www.w3.org/2000/svg">
<path d="M9.88572 28.4834C9.88572 29.3118 10.5573 29.9834 11.3857 29.9834C12.2142 29.9834 12.8857 29.3118 12.8857 28.4834H9.88572ZM12.4464 1.3436C11.8606 0.757902 10.9109 0.757902 10.3251 1.3436L0.779119 10.8896C0.193419 11.4754 0.193419 12.4251 0.779119 13.0109C1.36492 13.5967 2.31472 13.5967 2.90052 13.0109L11.3857 4.5256L19.871 13.0109C20.4568 13.5967 21.4066 13.5967 21.9923 13.0109C22.5781 12.4251 22.5781 11.4754 21.9923 10.8896L12.4464 1.3436ZM12.8857 28.4834V2.4043H9.88572V28.4834H12.8857Z" fill="#150931"/>
</svg>
