<svg width="23" height="30" viewBox="0 0 23 30" fill="none" xmlns="http://www.w3.org/2000/svg">
<path d="M5.16756 28.4834C5.16756 29.3118 5.51862 29.9834 5.95164 29.9834C6.38472 29.9834 6.73574 29.3118 6.73574 28.4834H5.16756ZM6.5061 1.3436C6.19989 0.757902 5.70345 0.757902 5.39724 1.3436L0.407294 10.8896C0.101133 11.4754 0.101133 12.4251 0.407294 13.0109C0.713509 13.5967 1.21 13.5967 1.51621 13.0109L5.95164 4.5256L10.3871 13.0109C10.6934 13.5967 11.1898 13.5967 11.496 13.0109C11.8022 12.4251 11.8022 11.4754 11.496 10.8896L6.5061 1.3436ZM6.73574 28.4834V2.4043H5.16756V28.4834H6.73574Z" fill="#150931"/>
<path d="M17.8324 1.5166C17.8324 0.6882 17.4814 0.0165997 17.0484 0.0165997C16.6153 0.0165997 16.2643 0.6882 16.2643 1.5166H17.8324ZM16.4939 28.6564C16.8001 29.2421 17.2965 29.2421 17.6028 28.6564L22.5927 19.1104C22.8989 18.5246 22.8989 17.5749 22.5927 16.9891C22.2865 16.4033 21.79 16.4033 21.4838 16.9891L17.0484 25.4744L12.6129 16.9891C12.3066 16.4033 11.8102 16.4033 11.504 16.9891C11.1978 17.5749 11.1978 18.5246 11.504 19.1104L16.4939 28.6564ZM16.2643 1.5166V27.5957H17.8324V1.5166H16.2643Z" fill="#150931"/>
</svg>
