<!-- icon666.com - MILLIONS OF FREE VECTOR ICONS --><svg fill="none" viewBox="0 0 24 24" xmlns="http://www.w3.org/2000/svg"><path d="m6.34288 14.621-2.828 2.829 3.535 3.535 13.43502-13.43499-3.535-3.535-2.122 2.121 1.415 1.414-1.415 1.414-1.414-1.414-2.121 2.122 2.121 2.11999-1.414 1.416-2.12102-2.121-2.122 2.121 1.415 1.414-1.415 1.415-1.414-1.415zm11.31402-12.72799 4.95 4.95c.1875.18752.2928.44183.2928.707 0 .26516-.1053.51947-.2928.707l-14.85002 14.84999c-.18752.1875-.44183.2928-.707.2928-.26516 0-.51947-.1053-.707-.2928l-4.95-4.95c-.18747-.1875-.29278-.4418-.29278-.707s.10531-.5195.29278-.707l14.85002-14.84999c.1875-.18747.4418-.29279.707-.29279.2651 0 .5195.10532.707.29279z" fill="rgb(0,0,0)"></path></svg>