<!-- icon666.com - MILLIONS OF FREE VECTOR ICONS --><svg id="Layer_1" enable-background="new 0 0 53 53" viewBox="0 0 53 53" xmlns="http://www.w3.org/2000/svg"><g><g><path d="m42.7012329 45.6763916h3.8800049c.2799683 0 .5-.2199707.5-.5v-37.6599731c0-.2799683-.2200317-.5-.5-.5h-3.8800049c-.2700195 0-.5.2200317-.5.5v37.6599731c0 .2800293.2299805.5.5.5z"></path></g><g><path d="m35.7012329 45.6763916h3.8800049c.2799683 0 .5-.2199707.5-.5v-13.3013916c0-.2799683-.2200317-.5-.5-.5h-3.8800049c-.2700195 0-.5.2200317-.5.5v13.3013916c0 .2800293.2299805.5.5.5z"></path></g><g><path d="m28.7012329 45.6763916h3.8800049c.2799683 0 .5-.2199707.5-.5v-28.6599731c0-.2799683-.2200317-.5-.5-.5h-3.8800049c-.2700195 0-.5.2200317-.5.5v28.6599731c0 .2800293.2299805.5.5.5z"></path></g><g><path d="m21.7012329 45.6763916h3.8800049c.2799683 0 .5-.2199707.5-.5v-18.4263916c0-.2799683-.2200317-.5-.5-.5h-3.8800049c-.2700195 0-.5.2200317-.5.5v18.4263916c0 .2800293.2299805.5.5.5z"></path></g><g><path d="m14.7012329 45.6763916h3.8800049c.2799683 0 .5-.2199707.5-.5v-33.3013916c0-.2799683-.2200317-.5-.5-.5h-3.8800049c-.2700195 0-.5.2200317-.5.5v33.3013916c0 .2800293.2299805.5.5.5z"></path></g><g><path d="m7.7012329 45.6763916h3.8800049c.2799683 0 .5-.2199707.5-.5v-22.6763916c0-.2799683-.2200317-.5-.5-.5h-3.8800049c-.2700195 0-.5.2200317-.5.5v22.6763916c0 .2800293.2299805.5.5.5z"></path></g><g><path d="m50.28125 48.1799316h-45.4584961v-45.4584961c0-.2763672-.2236328-.5-.5-.5s-.5.2236328-.5.5v3.7446289h-.5727539c-.2763672 0-.5.2236328-.5.5s.2236328.5.5.5h.5727539v4.09375h-1.1040039c-.2763672 0-.5.2236328-.5.5s.2236328.5.5.5h1.1040039v4.09375h-.5727539c-.2763672 0-.5.2236328-.5.5s.2236328.5.5.5h.5727539v4.09375h-1.1040039c-.2763672 0-.5.2236328-.5.5s.2236328.5.5.5h1.1040039v4.09375h-.5727539c-.2763672 0-.5.2236328-.5.5s.2236328.5.5.5h.5727539v4.09375h-1.1040039c-.2763672 0-.5.2236328-.5.5s.2236328.5.5.5h1.1040039v5h-.5727539c-.2763672 0-.5.2236328-.5.5s.2236328.5.5.5h.5727539v5h-1.1040039c-.2763672 0-.5.2236328-.5.5s.2236328.5.5.5h1.1040039v3.7451172c0 .2763672.2236328.5.5.5h3.6669922v.5673828c0 .2763672.2236328.5.5.5s.5-.2236328.5-.5v-.5673828h4.09375v1.0986328c0 .2763672.2236328.5.5.5s.5-.2236328.5-.5v-1.0986328h4.09375v.5673828c0 .2763672.2236328.5.5.5s.5-.2236328.5-.5v-.5673828h4.09375v1.0986328c0 .2763672.2236328.5.5.5s.5-.2236328.5-.5v-1.0986328h4.09375v.5673828c0 .2763672.2236328.5.5.5s.5-.2236328.5-.5v-.5673828h4.09375v1.0986328c0 .2763672.2236328.5.5.5s.5-.2236328.5-.5v-1.0986328h5v.5673828c0 .2763672.2236328.5.5.5s.5-.2236328.5-.5v-.5673828h5v1.0986328c0 .2763672.2236328.5.5.5s.5-.2236328.5-.5v-1.0986328h3.8227539c.2763672 0 .5-.2236328.5-.5s-.2236328-.5-.5-.5z"></path></g></g></svg>