<!-- icon666.com - MILLIONS OF FREE VECTOR ICONS --><svg version="1.1" id="Layer_1" xmlns="http://www.w3.org/2000/svg" xmlns:xlink="http://www.w3.org/1999/xlink" x="0px" y="0px" viewBox="0 0 490 490" style="enable-background:new 0 0 490 490;" xml:space="preserve"><g><g><g><path d="M480,0H10C4.477,0,0,4.477,0,10v185c0,5.523,4.477,10,10,10h281.767l87.379,63.106c1.736,1.255,3.789,1.894,5.855,1.894 c1.555,0,3.115-0.362,4.552-1.097c3.344-1.709,5.447-5.148,5.447-8.903v-55h85c5.522,0,10-4.477,10-10V10 C490,4.477,485.522,0,480,0z M470,185h-85c-5.522,0-10,4.477-10,10v45.442l-74.146-53.548C299.15,185.662,297.103,185,295,185H20 V20h450V185z"></path><path d="M480,290H198.233l-87.379-63.106c-3.043-2.199-7.062-2.508-10.407-0.797C97.104,227.806,95,231.245,95,235v55H10 c-5.523,0-10,4.478-10,10v180c0,5.522,4.477,10,10,10h470c5.522,0,10-4.478,10-10V300C490,294.478,485.522,290,480,290z M470,470 H20V310h85c5.522,0,10-4.478,10-10v-45.442l74.145,53.548C190.85,309.338,192.898,310,195,310h275V470z"></path><rect x="60" y="45" width="370" height="20"></rect><rect x="60" y="85" width="370" height="20"></rect><rect x="60" y="125" width="285" height="20"></rect><rect x="125" y="350" width="305" height="20"></rect><rect x="60" y="390" width="370" height="20"></rect><rect x="60" y="430" width="320" height="20"></rect><rect x="405" y="125" width="25" height="20"></rect><rect x="365" y="125" width="25" height="20"></rect><rect x="60" y="350" width="25" height="20"></rect></g></g></g></svg>