<!-- icon666.com - MILLIONS OF FREE VECTOR ICONS --><svg id="Line" viewBox="0 0 64 64" xmlns="http://www.w3.org/2000/svg"><path d="m56.22266 40h-10.5788c.38052.48207.10506-14.847.18438-15.0001a3.00343 3.00343 0 0 0 -3.00011-2.9999h-13.19794a2.96481 2.96481 0 0 0 .18426-1v-14a3.00328 3.00328 0 0 0 -3-3h-19.03711a3.00328 3.00328 0 0 0 -3 3v14a2.97707 2.97707 0 0 0 .78028 2 2.97707 2.97707 0 0 0 -.78028 2v14a2.97707 2.97707 0 0 0 .78028 2 2.97707 2.97707 0 0 0 -.78028 2v14a3.00328 3.00328 0 0 0 3 3h48.44532a3.00328 3.00328 0 0 0 3-3v-14a3.00328 3.00328 0 0 0 -3-3zm-12.39453-15v14a1.00068 1.00068 0 0 1 -1 1h-35.05079a1.00068 1.00068 0 0 1 -1-1v-14a1.00068 1.00068 0 0 1 1-1c8.703.00827 26.4141-.006 35.05078 0a1.00065 1.00065 0 0 1 1.00001 1zm-37.05079-18a1.00068 1.00068 0 0 1 1-1h19.03711a1.00067 1.00067 0 0 1 1 1v14a1.00067 1.00067 0 0 1 -1 1h-19.03711a1.00068 1.00068 0 0 1 -1-1zm50.44532 50a1.00068 1.00068 0 0 1 -1 1h-48.44532a1.00068 1.00068 0 0 1 -1-1v-14a1.00068 1.00068 0 0 1 1-1h48.44532a1.00068 1.00068 0 0 1 1 1z" fill="rgb(0,0,0)"></path></svg>