<!-- icon666.com - MILLIONS OF FREE VECTOR ICONS --><svg viewBox="0 0 384 384" xmlns="http://www.w3.org/2000/svg"><path d="m105.375 0-105.375 105.375v173.25l105.375 105.375h173.25l105.375-105.375v-173.25l-105.375-105.375zm246.625 155.535156v72.9375l-64 21.335938v-115.601563zm-320 72.929688v-72.9375l64-21.335938v115.601563zm96 27.535156v-128h128v128zm121.800781 32-21.335937 64h-72.9375l-21.335938-64zm-115.601562-192 21.335937-64h72.9375l21.335938 64zm-15.574219-64h3.175781l-22.449219 67.351562-67.351562 22.449219v-3.175781zm-86.625 233.375v-3.175781l67.351562 22.449219 22.449219 67.351562h-3.175781zm233.375 86.625h-3.175781l22.449219-67.351562 67.351562-22.449219v3.175781zm86.625-230.199219-67.351562-22.449219-22.449219-67.351562h3.175781l86.625 86.625zm0 0"></path></svg>