<?xml version="1.0" encoding="UTF-8"?>
<svg id="Layer_1" data-name="Layer 1" xmlns="http://www.w3.org/2000/svg" viewBox="0 0 553.79 549.19">
  <defs>
    <style>
      .cls-1 {
        fill: #fff;
        stroke-width: 0px;
      }
    </style>
  </defs>
  <path class="cls-1" d="M48.26,229.29c1.09-7.77,1.75-15.63,3.34-23.3,4.94-23.91,15.21-45.45,30.35-64.58,22.42-28.33,50.53-49.31,83.43-64.04,26-11.64,53.24-18.62,81.48-22.08,18.14-2.22,36.27-1.5,54.42-.62,29.81,1.45,58.35,8.53,85.84,19.81,37.73,15.49,69.6,38.95,93.79,72,14.56,19.9,24.04,42.19,28.02,66.69,5.06,31.2-.16,60.75-13.96,88.98-1.62,3.31-3.14,6.68-4.96,9.87-1.05,1.84-.72,3.1.42,4.7,8.45,11.82,14.88,24.58,17.99,38.88,5.84,26.86.79,51.72-14.24,74.49-4.73,7.16-10.58,13.59-16.03,20.25-1.11,1.35-1.56,2.55-1.29,4.27,2.41,15.53,4.79,31.06,7.11,46.6.38,2.56.63,5.17.63,7.75,0,5.09-4.94,8.59-9.71,6.81-16.21-6.03-32.39-12.17-48.57-18.28-6.41-2.42-12.78-4.93-19.2-7.31-.96-.35-2.13-.4-3.15-.25-10.33,1.49-20.62,3.47-30.99,4.49-11.77,1.15-23.58.61-35.34-.9-12.04-1.55-23.9-3.92-35.44-7.77-26.95-9.01-50.87-22.79-68.86-45.26-5.71-7.14-10.28-15.23-15.02-23.1-4.16-6.91-4.43-7.4-11.98-4.6-20.37,7.54-40.67,15.28-61.01,22.9-16.59,6.21-33.21,12.37-49.83,18.51-5,1.84-9.56-1.13-9.41-6.45.15-5.25.79-10.5,1.54-15.7,1.69-11.75,3.56-23.48,5.4-35.22,2.25-14.37,4.51-28.74,6.85-43.1.27-1.65,0-2.76-1.21-3.99-11.38-11.55-21.67-23.96-29.76-38.09-10.56-18.45-17.44-38.11-19.65-59.32-.31-2.99-.65-5.97-.98-8.96,0-4.69,0-9.39,0-14.08ZM476.93,300.84c.21-.18.39-.26.46-.39.8-1.56,1.58-3.13,2.39-4.7,11.73-22.78,16.42-46.93,13.86-72.41-2.31-22.93-10.34-43.85-23.11-62.94-18.22-27.24-42.8-47.28-71.62-62.3-30.69-16-63.59-24.33-97.97-27.11-28.67-2.32-57.03-.33-84.99,6.5-35.72,8.73-68.27,23.88-96.32,48-20.06,17.25-35.74,37.73-45.57,62.46-8.5,21.38-11.22,43.5-8.03,66.26,3.23,23.02,12.41,43.62,25.9,62.42,7.2,10.04,15.67,18.98,24.23,27.83.7.72,1.31,2,1.21,2.94-.46,4.06-1.21,8.09-1.83,12.13-3.46,22.49-6.93,44.97-10.37,67.46-.32,2.09-.5,4.2-.78,6.61.92-.32,1.38-.47,1.84-.65,33.68-12.97,67.35-25.97,101.08-38.83,2.67-1.02,2.76-2.34,2.73-4.81-.13-9.45-.81-19.03.47-28.32,2.4-17.41,10.11-32.83,20.99-46.58,16.94-21.39,38.78-35.98,64.2-45.33,34.1-12.54,69.02-14.56,104.48-7,23.62,5.04,45.37,14.41,64.71,29.04,4.12,3.12,8.04,6.48,12.05,9.72ZM466.02,494.92c0-1.2.09-1.87-.01-2.52-2.22-14.72-4.42-29.45-6.74-44.15-.27-1.72.13-2.76,1.34-3.91,8.42-7.97,16.18-16.5,22.05-26.59,10.07-17.28,13.8-35.69,10.2-55.52-3.38-18.62-12.46-34.1-25.64-47.34-14.13-14.18-31.04-24.01-49.77-30.75-21.83-7.87-44.37-11.16-67.57-9.67-18.4,1.18-36.18,4.82-53.3,11.94-21.9,9.11-40.76,22.18-54.7,41.49-15.14,20.96-20.14,44.17-13.17,69.43,5.51,19.94,17.4,35.67,33.29,48.43,25.54,20.5,55.26,30.08,87.54,32.37,18.58,1.32,36.93-.61,54.97-5.34,1.13-.3,2.54-.27,3.62.13,10.17,3.82,20.29,7.78,30.44,11.66,9.04,3.45,18.11,6.83,27.45,10.35Z"/>
</svg>