<?xml version="1.0" encoding="UTF-8"?>
<svg id="Layer_1" data-name="Layer 1" xmlns="http://www.w3.org/2000/svg" viewBox="0 0 517.02 535.4">
  <defs>
    <style>
      .cls-1 {
        fill: #fff;
        stroke-width: 0px;
      }
    </style>
  </defs>
  <path class="cls-1" d="M348.03,49.24c5.47,3.35,6.29,5.41,4.61,11.91-15.85,61.26-31.72,122.52-47.57,183.78-.36,1.38-.65,2.78-1.12,4.79,1.94,0,3.49,0,5.04,0,18.28,0,36.55,0,54.83,0,1.31,0,2.61-.04,3.92.03,3.23.18,5.92,1.25,7.39,4.44,1.47,3.21.49,5.92-1.55,8.45-9.55,11.86-19.11,23.71-28.67,35.57-51.34,63.67-102.69,127.34-154.03,191.01-.55.68-1.06,1.38-1.64,2.03-3.18,3.57-6.58,4.49-10.01,2.58-3.82-2.14-4.29-5.66-3.35-9.44,2.32-9.27,4.8-18.5,7.2-27.75,13.67-52.7,27.33-105.41,40.99-158.11.29-1.11.44-2.26.8-4.13h-4.79c-18.42,0-36.84,0-55.27,0-1.31,0-2.61.04-3.91-.05-3.26-.22-6.47-1.35-7.03-4.71-.42-2.54.02-5.99,1.51-7.94,7.99-10.5,16.42-20.66,24.71-30.93,52.62-65.25,105.24-130.5,157.9-195.71,1.69-2.1,3.78-3.87,5.68-5.8,1.45,0,2.9,0,4.35,0ZM329.83,90.12c-.29-.08-.58-.17-.88-.25-50.75,62.93-101.5,125.85-152.95,189.64,2.53,0,4.06,0,5.6,0,16.68,0,33.35-.02,50.03,0,9.07.02,11.76,3.51,9.48,12.31-13.27,51.29-26.57,102.58-39.85,153.88-.71,2.76-1.35,5.54-2.02,8.31l.74.27c50.75-62.94,101.5-125.87,152.95-189.68-2.51,0-4.04,0-5.57,0-16.82,0-33.64.03-50.47-.02-8.51-.02-11.31-3.66-9.19-11.86,10.36-40.09,20.75-80.16,31.13-120.25,3.66-14.12,7.33-28.25,10.99-42.37Z"/>
  <path class="cls-1" d="M487.29,363.45c-15.77,19.29-31.52,38.6-47.33,57.86-18.86,22.97-37.77,45.89-56.65,68.85-2.19,2.66-4.55,5.02-8.35,4.52-5.1-.68-7.37-4.93-5.8-10.97,2.33-8.97,4.8-17.89,7.19-26.84,6.17-23.07,12.33-46.15,18.49-69.22.33-1.25.55-2.52.9-4.17-10.78,0-21.33-.05-31.89.03-3.79.03-7.38-.24-9.33-4.09-2.04-4.03-.04-7.15,2.49-10.22,33.66-40.82,67.29-81.68,100.93-122.52,3.41-4.14,6.61-5.19,10.13-3.5,3.73,1.79,4.97,5.16,3.58,10.39-8.46,31.9-16.96,63.79-25.44,95.68-.36,1.37-.64,2.76-1.06,4.58,11.04,0,21.61.17,32.16-.08,4.57-.11,7.83,1.36,9.97,5.36v4.35ZM464.09,368.64c-9.42,0-17.79.03-26.16,0-8.3-.03-11.21-3.87-9.06-11.98,5.97-22.53,11.98-45.05,17.96-67.58.52-1.97.99-3.96,1.48-5.94l-.87-.34c-23.35,28.36-46.69,56.72-70.68,85.86,9.18,0,17.37,0,25.56,0,9.27.01,11.93,3.55,9.51,12.64-6.12,22.94-12.25,45.88-18.36,68.83-.38,1.42-.62,2.88-.93,4.33.21.1.43.19.64.29,23.39-28.4,46.78-56.8,70.9-86.08Z"/>
  <path class="cls-1" d="M154.8,49.24c5.54,3.25,6.46,5.47,4.77,11.82-8.38,31.48-16.77,62.95-25.16,94.43-.41,1.53-.79,3.06-1.34,5.16,7.19,0,14.08,0,20.96,0,4.21,0,8.41.06,12.62-.02,3.49-.06,6.36,1.07,7.88,4.31,1.52,3.24.54,6.17-1.68,8.85-9.7,11.73-19.37,23.49-29.05,35.24-23.97,29.1-47.93,58.2-71.9,87.3-.74.89-1.45,1.82-2.26,2.64-2.77,2.78-6.02,3.64-9.47,1.57-3.22-1.93-4.23-4.99-3.26-8.65,3.16-11.89,6.31-23.79,9.47-35.68,5.44-20.43,10.88-40.85,16.31-61.28.36-1.37.65-2.76,1.09-4.63-9.86,0-19.25,0-28.65,0-1.6,0-3.19-.05-4.79,0-3.48.13-6.28-.98-7.89-4.24-1.65-3.34-.51-6.17,1.66-8.81,8.57-10.41,17.14-20.82,25.71-31.23,25.08-30.44,50.15-60.89,75.26-91.3,1.62-1.96,3.56-3.67,5.35-5.49,1.45,0,2.9,0,4.35,0ZM80.57,260.94c.32.11.65.22.97.33,23.35-28.35,46.7-56.71,70.65-85.8-9.23,0-17.45,0-25.66,0-9.03-.01-11.85-3.63-9.55-12.3,5.51-20.71,11.05-41.41,16.57-62.12,1-3.76,1.94-7.53,2.9-11.3-.25-.11-.5-.21-.76-.32-23.42,28.45-46.85,56.89-70.84,86.03,9.46,0,17.85-.03,26.24,0,8.07.03,11.09,3.92,9.05,11.65-3.69,14-7.44,27.99-11.15,41.98-2.82,10.61-5.61,21.22-8.42,31.83Z"/>
</svg>