<svg width="30" height="30" viewBox="0 0 30 30" fill="none" xmlns="http://www.w3.org/2000/svg">
<circle cx="15" cy="15" r="15" fill="white"/>
<g clip-path="url(#clip0_411_168)">
<path fill-rule="evenodd" clip-rule="evenodd" d="M7.16866 14.0268C11.732 12.0511 14.775 10.7485 16.2976 10.1192C20.6448 8.32245 22.1369 8 22.1369 8C22.1369 8 22.5559 8.02961 22.7435 8.18085C22.9019 8.3085 22.9454 8.48102 22.9663 8.60205C22.9871 8.72319 23.0131 8.99897 22.9925 9.21445C22.7568 11.6741 21.7375 17.6433 21.2189 20.3981C20.9995 21.5639 20.5674 21.9547 20.1491 21.993C19.2401 22.0761 18.5498 21.396 17.6694 20.8225C16.2916 19.9251 15.5133 19.3664 14.176 18.4906C12.6305 17.4785 13.6323 16.9222 14.5132 16.0132C14.7436 15.7752 18.7489 12.155 18.8264 11.8266C18.8361 11.7854 18.8451 11.6324 18.7536 11.5515C18.662 11.4707 18.527 11.4983 18.4294 11.5203C18.2913 11.5515 16.0904 12.9971 11.8267 15.8572C11.2019 16.2835 10.6361 16.4912 10.129 16.4803C9.57011 16.4683 8.49495 16.1663 7.69573 15.9081C6.71541 15.5914 5.93627 15.424 6.00412 14.8862C6.03946 14.6061 6.42763 14.3196 7.16866 14.0268Z" fill="#BC03CC"/>
</g>
<defs>
<clipPath id="clip0_411_168">
<rect width="17" height="14" fill="white" transform="translate(6 8)"/>
</clipPath>
</defs>
</svg>
