<!-- icon666.com - MILLIONS vector ICONS FREE --><svg version="1.1" id="Capa_1" xmlns="http://www.w3.org/2000/svg" xmlns:xlink="http://www.w3.org/1999/xlink" x="0px" y="0px" viewBox="0 0 502.346 502.346" style="enable-background:new 0 0 502.346 502.346;" xml:space="preserve"><g><g><path d="M290.019,340.178c-1.069-4.017-3.698-7.44-7.301-9.512c-1.866-1.074-3.938-1.742-6.08-1.96 c8.93-12.895,5.716-30.587-7.179-39.517c-1.275-0.883-2.62-1.66-4.021-2.323c1.728-1.288,3.182-2.906,4.28-4.76 c4.263-7.512,1.63-17.058-5.883-21.322c-3.557-2.019-7.763-2.564-11.717-1.518l-10.56,2.84c-3-14.2-14.6-58.52-43.2-72.36 c-36-17.28-54.12-29.24-53.88-45.76l0.68,0.44c13.28,8,30.24,9.32,50.4,4l28,13.8c0.869,0.429,1.864,0.529,2.8,0.28l16.88-4.52 c0.88-0.229,1.656-0.751,2.2-1.48l14.84-20c0.744-0.981,0.995-2.25,0.68-3.44l-5.72-21.32c-0.265-0.982-0.895-1.826-1.76-2.36 l-52.44-32.92l5.92-7.36c0.685-0.855,0.988-1.954,0.84-3.04c-0.148-1.094-0.741-2.079-1.64-2.72l-31.6-22.4 c-0.324-0.249-0.69-0.438-1.08-0.56c-7.755-2.283-15.735-3.718-23.8-4.28c-3.08-9.28-10.24-32.84-10.32-33.24 c-0.627-2.118-2.852-3.328-4.97-2.701c-1.083,0.32-1.98,1.083-2.47,2.101c0,0.24-12.36,25.08-18.56,36.28 c-25.327,5.687-47.522,20.841-62.04,42.36c-49.44,70.36,3.12,134.84,5.4,137.56l5.2,6.12c13.04,15.08,42.56,49.28,51.2,72 l-19.08,5.12c-9.8-18.04-36-50.76-50.6-68.8l-1.8-2.24c-6.52-8-62.08-81.56-6.36-160.72c17.26-25.655,43.881-43.532,74.16-49.8 c2.193-0.268,3.754-2.262,3.486-4.455c-0.268-2.193-2.262-3.754-4.455-3.486c-0.227,0.028-0.452,0.075-0.671,0.141 c-32.254,6.598-60.633,25.584-79.04,52.88c-59.12,84-0.24,161.76,6.64,170.32l1.8,2.24c13.76,17.48,38.84,48.32,48.88,65.92 l-8.96,2.4c-8.317,2.25-13.235,10.815-10.986,19.132c1.671,6.178,6.946,10.709,13.306,11.428c-0.4,0.6-0.8,1.2-1.16,1.84 c-7.852,13.61-3.198,31.008,10.4,38.88c0.64,0.36,1.32,0.64,1.96,0.96c-6.85,5.226-8.166,15.016-2.939,21.865 c2.895,3.794,7.368,6.055,12.139,6.135c1.35,0.004,2.695-0.171,4-0.52l175.12-46.56 C287.284,357.05,292.236,348.504,290.019,340.178z M67.998,219.266l-5.04-5.92c-2.08-2.52-50.96-62.6-5-128 c13.752-20.354,34.907-34.534,58.96-39.52c1.113-0.235,2.073-0.934,2.64-1.92c4-6.72,10.68-20,15.2-29.24 c2.8,9.16,6.88,22.2,8.52,26.52c0.56,1.46,1.919,2.46,3.48,2.56c8.122,0.452,16.17,1.793,24,4l27.36,19.52l-6.12,7.56 c-0.717,0.886-1.023,2.035-0.84,3.16c0.185,1.143,0.856,2.15,1.84,2.76l55,34.6l4.8,17.96l-12.88,17.32l-14.08,3.76l-28-13.8 c-0.88-0.439-1.891-0.539-2.84-0.28c-18.56,5.08-33.88,4-45.52-2.8c-8.985-5.629-15.579-14.373-18.52-24.56 c-0.497-2.209-2.691-3.597-4.9-3.1c-2.209,0.497-3.597,2.691-3.1,4.9c2.483,8.977,7.365,17.108,14.12,23.52 c-5.04,26.08,20.8,41,57.88,58.68c25.48,12.28,36.24,54.64,38.92,67.2l-113,30.24C111.998,270.386,82.558,236.226,67.998,219.266z M73.598,323.186c-1.105-4.065,1.295-8.255,5.36-9.36l175.24-46.88c0.653-0.172,1.325-0.266,2-0.28 c1.404-0.027,2.788,0.332,4,1.04c1.749,1.011,3.018,2.683,3.52,4.64c0.557,1.942,0.282,4.029-0.76,5.76 c-0.99,1.759-2.649,3.043-4.6,3.56l-87.72,23.44l-75.08,20l-12.6,3.44C78.893,329.651,74.703,327.251,73.598,323.186z M83.158,357.866c-1.457-5.236-0.72-10.839,2.04-15.52c2.703-4.721,7.183-8.163,12.44-9.56l75.08-20l75.08-20 c1.722-0.461,3.498-0.69,5.28-0.68c9.266,0.003,17.38,6.216,19.8,15.16c2.942,10.899-3.508,22.119-14.407,25.06 c-0.024,0.007-0.049,0.013-0.073,0.02l-75.08,20l-75.08,20c-5.252,1.404-10.847,0.671-15.56-2.04 C87.967,367.602,84.537,363.121,83.158,357.866z M281.478,347.826c-1.017,1.752-2.684,3.032-4.64,3.56l-175,46.88 c-4.054,1.105-8.235-1.286-9.34-5.34c-1.105-4.054,1.286-8.235,5.34-9.34l12.4-3.36l75.12-20l87.48-23.44 c0.642-0.156,1.3-0.237,1.96-0.24c3.434-0.055,6.474,2.213,7.4,5.52C282.748,344.005,282.488,346.083,281.478,347.826z"></path></g></g><g><g><path d="M184.558,16.346l-26.52-6.04c-2.142-0.501-4.286,0.821-4.8,2.96c-0.519,2.147,0.801,4.309,2.948,4.828 c0.017,0.004,0.034,0.008,0.052,0.012l22.72,5.16l-1.8,8c-0.602,2.126,0.634,4.336,2.76,4.938c0.027,0.008,0.054,0.015,0.08,0.022 h0.88c1.907,0.047,3.581-1.259,4-3.12l2.64-12C187.994,18.978,186.677,16.861,184.558,16.346z"></path></g></g><g><g><path d="M180.558,77.146c0-2.209-1.791-4-4-4l-20.48-0.52c-1.871-0.059-3.533,1.187-4,3c-0.505,1.845,0.366,3.79,2.08,4.64 l18.2,9.88c0.585,0.33,1.248,0.496,1.92,0.48c1.466,0.004,2.816-0.794,3.52-2.08c1.039-1.934,0.325-4.344-1.6-5.4l-3.64-2h4 C178.767,81.146,180.558,79.356,180.558,77.146z"></path></g></g><g><g><path d="M496.462,140.599c-0.021-0.004-0.042-0.008-0.064-0.012l-29.16-8c-1.026-0.276-2.12-0.132-3.04,0.4 c-0.927,0.53-1.604,1.408-1.88,2.44l-5.16,19.24l-20.64-5.52l5.16-19.24c0.276-1.026,0.132-2.12-0.4-3.04 c-0.53-0.927-1.408-1.604-2.44-1.88l-29.96-8c-1.026-0.276-2.12-0.132-3.04,0.4c-0.904,0.528-1.564,1.39-1.84,2.4l-5.04,19.48 l-20.76-5.6l5.16-19.24c0.31-1.063,0.165-2.207-0.4-3.16c-0.538-0.912-1.415-1.574-2.44-1.84l-29.16-8 c-2.131-0.581-4.33,0.676-4.911,2.807c-0.003,0.011-0.006,0.022-0.009,0.033l-16.96,63.68c-2.17,7.865-1.074,16.274,3.04,23.32 c1.308,2.221,2.879,4.276,4.68,6.12l-0.72,0.32c-3.356,1.94-5.802,5.135-6.8,8.88c-1.006,3.681-0.548,7.61,1.28,10.96 c1.93,3.365,5.129,5.814,8.88,6.8l12.68,3.4l-53.56,139.52c-7.005-0.526-13.391,4.012-15.2,10.8c-0.66,2.423-0.66,4.977,0,7.4 c-6.866-0.309-13.023,4.201-14.8,10.84c-0.66,2.423-0.66,4.977,0,7.4c-9.573-0.448-18.158,5.853-20.6,15.12l-2.8,10.4l-2.6,10.04 c-2.902,10.921,3.571,22.133,14.48,25.08l139.2,37.28c1.72,0.474,3.496,0.717,5.28,0.72c9.256-0.008,17.356-6.222,19.76-15.16 l5.6-20.84c2.49-8.848-1.371-18.254-9.36-22.8c1.92-1.818,3.303-4.129,4-6.68c1.868-7.036-1.732-14.372-8.44-17.2 c4.536-4.665,5.403-11.782,2.12-17.4c-1.45-2.555-3.659-4.596-6.32-5.84l23.16-147.52l12.64,3.4c1.308,0.328,2.652,0.489,4,0.48 c8.085-0.034,14.612-6.616,14.578-14.701c-0.011-2.533-0.679-5.021-1.938-7.219l-0.48-0.64 c10.432-2.879,18.559-11.067,21.36-21.52l17-63.4C500.032,143.14,498.628,141.033,496.462,140.599z M419.32,464.339 c-0.001,0.003-0.001,0.005-0.002,0.007l0.04,0.24l-1.72,6.56l-125.64-33.68c-2.143-0.574-4.346,0.697-4.92,2.84 c-0.574,2.143,0.697,4.346,2.84,4.92l125.64,33.64l-1.76,6.56c-0.849,3.192-2.937,5.913-5.8,7.56 c-2.863,1.677-6.282,2.124-9.48,1.24l-139.16-37.44c-6.647-1.796-10.596-8.622-8.84-15.28l1.76-6.52l14.12,3.76 c0.345,0.042,0.695,0.042,1.04,0c2.209,0.276,4.224-1.291,4.5-3.5c0.276-2.209-1.291-4.224-3.5-4.5l-14.08-4l1.76-6.52 c0.837-3.198,2.928-5.923,5.8-7.56c2.865-1.669,6.275-2.129,9.48-1.28l8,2.12l124.4,33.76l6.72,1.84 C417.155,450.882,421.096,457.702,419.32,464.339z M413.318,429.906c0.878,1.526,1.122,3.336,0.68,5.04v0.16 c-0.464,1.685-1.57,3.121-3.08,4c-1.524,0.886-3.343,1.117-5.04,0.64l-124.52-33.48c-3.594-0.729-5.916-4.234-5.187-7.828 s4.234-5.916,7.828-5.187c0.271,0.055,0.538,0.127,0.799,0.215l124.52,33.36C411.007,427.282,412.445,428.39,413.318,429.906z M409.158,411.466v0.16c-0.957,3.471-4.506,5.547-8,4.68c-0.32-0.02-0.64-0.02-0.96,0l-103.2-27.84 c-0.258-0.186-0.541-0.334-0.84-0.44c-3.499-0.92-5.593-4.499-4.68-8c0.957-3.471,4.506-5.547,8-4.68l104.88,28 c1.691,0.452,3.131,1.561,4,3.08C409.277,407.936,409.564,409.747,409.158,411.466z M401.158,394.386l-94.2-25.48l53.6-139.08 l64,17.16L401.158,394.386z M454.958,240.066c-0.452,1.691-1.561,3.131-3.08,4c-1.526,0.878-3.336,1.122-5.04,0.68l-104.88-28 c-3.499-0.92-5.593-4.499-4.68-8c0.444-1.695,1.555-3.138,3.08-4c1.006-0.595,2.151-0.913,3.32-0.92 c0.582,0.001,1.16,0.082,1.72,0.24l5.52,1.48l99.36,26.64C453.705,233.125,455.773,236.608,454.958,240.066z M474.398,206.826 c-3.156,12.008-15.448,19.183-27.456,16.028c-0.035-0.009-0.07-0.018-0.104-0.028l-93.72-25.24 c-12.008-3.156-19.183-15.448-16.028-27.456c0.009-0.035,0.018-0.07,0.028-0.104l16-59.56l21.44,5.76l-5.16,19.24 c-0.276,1.026-0.132,2.12,0.4,3.04c0.52,0.919,1.383,1.595,2.4,1.88l28.4,7.6c1.028,0.251,2.112,0.108,3.04-0.4 c0.912-0.538,1.574-1.415,1.84-2.44l5.16-19.24l22.24,5.96l-5.12,19.4c-0.559,2.131,0.711,4.313,2.84,4.88l28.36,7.6 c2.119,0.562,4.296-0.687,4.88-2.8l5.2-19.28l21.44,5.6L474.398,206.826z"></path></g></g><g><g><path d="M378.638,185.986l-0.12,0.28l-17.64-4.72c-2.119-0.562-4.295,0.687-4.88,2.8c-0.566,2.135,0.707,4.325,2.843,4.891 c0.039,0.01,0.078,0.02,0.117,0.029l17.6,4.72h1.04c2.209,0.287,4.233-1.271,4.52-3.48 C382.405,188.297,380.847,186.274,378.638,185.986z"></path></g></g><g><g><path d="M429.803,199.988c-0.002,0-0.003-0.001-0.005-0.001l-34.64-9.28c-2.112-0.648-4.349,0.54-4.997,2.652 c-0.648,2.112,0.54,4.349,2.652,4.997c0.087,0.027,0.176,0.051,0.265,0.071l34.68,9.32c0.345,0.042,0.695,0.042,1.04,0 c1.859,0.064,3.517-1.163,4-2.96C433.296,202.634,431.955,200.486,429.803,199.988z"></path></g></g></svg>