<!-- icon666.com - MILLIONS vector ICONS FREE --><svg viewBox="0 -78 512 512" xmlns="http://www.w3.org/2000/svg"><path d="m504.5 170.265625h-40.082031c10.710937-26.3125 14.160156-52.480469 9.96875-76.539063-7.234375-41.472656-36.253907-74.207031-77.628907-87.554687-47.175781-15.222656-99.3125-1.894531-140.757812 35.636719-44.425781-40.195313-101.445312-52.53125-150.367188-32.085938-3.820312 1.597656-5.625 5.988282-4.027343 9.8125 1.597656 3.820313 5.988281 5.625 9.8125 4.027344 20.964843-8.761719 44.40625-10.804688 67.796875-5.90625 25.648437 5.371094 50.390625 19.136719 71.542968 39.8125 2.914063 2.847656 7.570313 2.847656 10.484376 0 38.179687-37.3125 87.117187-51.152344 130.910156-37.019531 35.980468 11.609375 61.195312 39.964843 67.457031 75.855469 4 22.953124.019531 48.339843-11.507813 73.960937h-48.058593c-2.558594 0-4.9375 1.300781-6.316407 3.453125l-21.53125 33.621094s-39.871093-75.40625-39.925781-75.507813c-2.863281-5.414062-10.957031-5.148437-13.46875.425781l-61.996093 137.59375s-63.199219-176.941406-63.378907-177.441406c-2.230469-6.242187-11.261719-6.5625-13.929687-.5l-48.957032 111.191406-11.648437-28.199218c-1.160156-2.808594-3.898437-4.636719-6.933594-4.636719h-48.003906c-6.957031-15.390625-11.214844-30.625-12.589844-45.34375-3.214843-34.433594 9.628907-66.011719 35.238281-86.640625 3.222657-2.597656 3.734376-7.320312 1.132813-10.546875-2.597656-3.226563-7.320313-3.734375-10.542969-1.136719-29.597656 23.839844-44.457031 60.1875-40.761718 99.71875 1.359374 14.589844 5.078124 29.273438 11.058593 43.949219h-39.988281c-4.140625 0-7.5 3.359375-7.5 7.5 0 4.144531 3.359375 7.5 7.5 7.5h46.890625c29.972656 58.511719 95.496094 116.414063 190.84375 167.5 6.6875 3.582031 14.839844 3.582031 21.53125 0 25.832031-13.839844 49.765625-28.332031 71.140625-43.0625 3.410156-2.351563 4.269531-7.023437 1.917969-10.433594-2.351563-3.410156-7.019531-4.269531-10.433594-1.917969-20.914063 14.417969-44.367187 28.613282-69.710937 42.191407-2.300782 1.234375-5.054688 1.230469-7.359376 0-66.160156-35.445313-117.242187-73.675781-151.824218-113.628907-11.617188-13.425781-21.300782-27.054687-28.941406-40.648437h35.386718s16.402344 39.695313 16.449219 39.8125c2.472656 5.988281 11.195313 6.070313 13.796875.15625l48.449219-110.039063s63.125 176.734376 63.300781 177.21875c2.21875 6.214844 11.191406 6.566407 13.898438.558594l63.339843-140.570312s38.699219 73.183594 38.769531 73.316406c2.644532 5.003906 9.898438 5.296875 12.945313.539062l26.253906-40.992187h36.355469c-18.046875 32.089844-47.242188 63.835937-86.890625 94.441406-3.28125 2.53125-3.886719 7.242188-1.355469 10.519531 2.425782 3.140626 7.214844 3.90625 10.519532 1.355469 43.597656-33.65625 75.207031-68.902343 93.957031-104.765625.269531-.515625.53125-1.03125.796875-1.550781h46.972656c4.140625 0 7.5-3.359375 7.5-7.5s-3.359375-7.5-7.5-7.5zm0 0"></path></svg>