<!-- icon666.com - MILLIONS vector ICONS FREE --><svg version="1.1" id="Capa_1" xmlns="http://www.w3.org/2000/svg" xmlns:xlink="http://www.w3.org/1999/xlink" x="0px" y="0px" viewBox="0 0 511 511" style="enable-background:new 0 0 511 511;" xml:space="preserve"><g><path d="M255.5,136C189.607,136,136,189.607,136,255.5S189.607,375,255.5,375S375,321.393,375,255.5S321.393,136,255.5,136z M255.5,360C197.878,360,151,313.122,151,255.5S197.878,151,255.5,151S360,197.878,360,255.5S313.122,360,255.5,360z"></path><path d="M255.5,71c4.142,0,7.5-3.358,7.5-7.5v-56c0-4.142-3.358-7.5-7.5-7.5S248,3.358,248,7.5v56C248,67.642,251.358,71,255.5,71z "></path><path d="M255.5,119c4.142,0,7.5-3.358,7.5-7.5v-16c0-4.142-3.358-7.5-7.5-7.5s-7.5,3.358-7.5,7.5v16 C248,115.642,251.358,119,255.5,119z"></path><path d="M255.5,440c-4.142,0-7.5,3.358-7.5,7.5v56c0,4.142,3.358,7.5,7.5,7.5s7.5-3.358,7.5-7.5v-56 C263,443.358,259.642,440,255.5,440z"></path><path d="M255.5,392c-4.142,0-7.5,3.358-7.5,7.5v16c0,4.142,3.358,7.5,7.5,7.5s7.5-3.358,7.5-7.5v-16 C263,395.358,259.642,392,255.5,392z"></path><path d="M503.5,248h-56c-4.142,0-7.5,3.358-7.5,7.5s3.358,7.5,7.5,7.5h56c4.142,0,7.5-3.358,7.5-7.5S507.642,248,503.5,248z"></path><path d="M399.5,248c-4.142,0-7.5,3.358-7.5,7.5s3.358,7.5,7.5,7.5h16c4.142,0,7.5-3.358,7.5-7.5s-3.358-7.5-7.5-7.5H399.5z"></path><path d="M71,255.5c0-4.142-3.358-7.5-7.5-7.5h-56c-4.142,0-7.5,3.358-7.5,7.5s3.358,7.5,7.5,7.5h56C67.642,263,71,259.642,71,255.5 z"></path><path d="M95.5,248c-4.142,0-7.5,3.358-7.5,7.5s3.358,7.5,7.5,7.5h16c4.142,0,7.5-3.358,7.5-7.5s-3.358-7.5-7.5-7.5H95.5z"></path><path d="M148.374,352.02l-66.177,66.177c-2.929,2.929-2.929,7.678,0,10.606C83.661,430.268,85.581,431,87.5,431 s3.839-0.732,5.303-2.197l66.177-66.177c2.929-2.929,2.929-7.678,0-10.606C156.051,349.091,151.302,349.091,148.374,352.02z"></path><path d="M357.323,161.177c1.919,0,3.839-0.732,5.303-2.197l66.177-66.177c2.929-2.929,2.929-7.678,0-10.606 c-2.929-2.929-7.678-2.929-10.606,0l-66.177,66.177c-2.929,2.929-2.929,7.678,0,10.606 C353.484,160.444,355.404,161.177,357.323,161.177z"></path><path d="M193.464,125.332c1.196,2.888,3.989,4.632,6.932,4.632c0.957,0,1.929-0.184,2.867-0.573 c3.827-1.585,5.644-5.973,4.059-9.799l-24.492-59.128c-1.585-3.827-5.973-5.644-9.799-4.059c-3.827,1.585-5.644,5.973-4.059,9.799 L193.464,125.332z"></path><path d="M317.536,385.668c-1.585-3.827-5.972-5.643-9.799-4.059c-3.827,1.585-5.644,5.973-4.059,9.799l24.492,59.128 c1.196,2.888,3.989,4.632,6.932,4.632c0.957,0,1.929-0.184,2.867-0.573c3.827-1.585,5.644-5.973,4.059-9.799L317.536,385.668z"></path><path d="M362.626,352.02c-2.929-2.929-7.678-2.929-10.606,0c-2.929,2.929-2.929,7.678,0,10.606l66.177,66.177 c1.464,1.464,3.384,2.197,5.303,2.197s3.839-0.732,5.303-2.197c2.929-2.929,2.929-7.678,0-10.606L362.626,352.02z"></path><path d="M148.374,158.98c1.464,1.464,3.384,2.197,5.303,2.197s3.839-0.732,5.303-2.197c2.929-2.929,2.929-7.678,0-10.606 L92.803,82.197c-2.929-2.929-7.678-2.929-10.606,0c-2.929,2.929-2.929,7.678,0,10.606L148.374,158.98z"></path><path d="M307.736,129.391c0.939,0.389,1.911,0.573,2.867,0.573c2.943,0,5.736-1.744,6.932-4.632l24.492-59.128 c1.585-3.827-0.232-8.214-4.059-9.799c-3.827-1.584-8.214,0.232-9.799,4.059l-24.492,59.128 C302.092,123.418,303.91,127.805,307.736,129.391z"></path><path d="M203.264,381.609c-3.829-1.584-8.215,0.232-9.799,4.059l-24.492,59.128c-1.585,3.827,0.232,8.214,4.059,9.799 c0.939,0.389,1.911,0.573,2.867,0.573c2.943,0,5.736-1.744,6.932-4.632l24.492-59.128 C208.908,387.582,207.09,383.195,203.264,381.609z"></path><path d="M129.391,307.736c-1.585-3.827-5.972-5.643-9.799-4.059l-59.128,24.492c-3.827,1.585-5.644,5.973-4.059,9.799 c1.196,2.888,3.989,4.632,6.932,4.632c0.957,0,1.929-0.184,2.867-0.573l59.128-24.492 C129.158,315.95,130.976,311.563,129.391,307.736z"></path><path d="M381.609,203.264c1.196,2.888,3.989,4.632,6.932,4.632c0.957,0,1.929-0.184,2.867-0.573l59.128-24.492 c3.827-1.585,5.644-5.973,4.059-9.799c-1.585-3.827-5.973-5.643-9.799-4.059l-59.128,24.492 C381.842,195.05,380.024,199.437,381.609,203.264z"></path><path d="M60.463,182.831l59.128,24.492c0.938,0.389,1.911,0.573,2.867,0.573c2.943,0,5.736-1.744,6.932-4.632 c1.585-3.827-0.232-8.214-4.059-9.799l-59.128-24.492c-3.829-1.584-8.214,0.232-9.799,4.059 C54.819,176.858,56.636,181.246,60.463,182.831z"></path><path d="M450.537,328.169l-59.128-24.492c-3.827-1.584-8.214,0.232-9.799,4.059s0.232,8.214,4.059,9.799l59.128,24.492 c0.939,0.389,1.911,0.573,2.867,0.573c2.943,0,5.736-1.744,6.932-4.632C456.181,334.142,454.364,329.754,450.537,328.169z"></path></g></svg>