<!-- icon666.com - MILLIONS vector ICONS FREE --><svg version="1.1" id="Capa_1" xmlns="http://www.w3.org/2000/svg" xmlns:xlink="http://www.w3.org/1999/xlink" x="0px" y="0px" viewBox="0 0 512.011 512.011" style="enable-background:new 0 0 512.011 512.011;" xml:space="preserve"><g><g><path d="M112.307,62.83l-42.24-42.24c-1.596-1.604-3.772-2.5-6.033-2.5c-2.261,0-4.429,0.896-6.033,2.5L21.794,56.797 c-3.336,3.337-3.336,8.73,0,12.066l42.24,42.24c1.664,1.664,3.849,2.5,6.033,2.5c2.185,0,4.369-0.836,6.033-2.509l36.207-36.198 c1.604-1.596,2.5-3.772,2.5-6.033C114.808,66.602,113.912,64.435,112.307,62.83z M70.059,93.004L39.893,62.83l24.141-24.132 l30.157,30.174L70.059,93.004z"></path></g></g><g><g><path d="M469.001,420.71l-42.846-44.023c-1.596-1.638-3.772-2.569-6.059-2.586c-2.466,0.102-4.48,0.887-6.093,2.5l-36.207,36.207 c-3.302,3.294-3.345,8.636-0.085,11.981l42.846,44.023c1.596,1.638,3.772,2.569,6.059,2.586c0.026,0,0.043,0,0.06,0 c2.261,0,4.437-0.896,6.033-2.5l36.207-36.207C472.218,429.397,472.26,424.055,469.001,420.71z M426.761,450.722l-30.942-31.795 l24.132-24.141l30.942,31.795L426.761,450.722z"></path></g></g><g><g><path d="M491.657,468.215l-21.035-45.158c-1.178-2.526-3.507-4.318-6.255-4.804c-2.739-0.478-5.547,0.401-7.518,2.372 l-36.207,36.207c-1.971,1.971-2.859,4.779-2.372,7.518c0.486,2.739,2.278,5.077,4.804,6.255l45.167,21.026 c1.152,0.529,2.381,0.794,3.601,0.794c2.219,0,4.395-0.862,6.033-2.5l12.083-12.075 C492.493,475.323,493.167,471.466,491.657,468.215z M470.033,473.642l-28.698-13.363l18.961-18.961l13.363,28.698L470.033,473.642 z"></path></g></g><g><g><path d="M509.508,497.425l-25.6-25.6c-3.328-3.336-8.738-3.336-12.066,0c-3.337,3.337-3.337,8.73,0,12.066l25.6,25.6 c1.664,1.664,3.849,2.5,6.033,2.5c2.185,0,4.369-0.828,6.033-2.5C512.845,506.154,512.845,500.761,509.508,497.425z"></path></g></g><g><g><path d="M220.92,159.377l-36.207-36.207c-3.328-3.337-8.738-3.337-12.066,0l-48.273,48.273c-3.337,3.336-3.337,8.73,0,12.066 l36.207,36.207c1.664,1.664,3.849,2.5,6.033,2.5c2.176,0,4.369-0.836,6.033-2.5l48.273-48.273 C224.256,168.106,224.256,162.713,220.92,159.377z M166.605,201.617l-24.132-24.141l36.198-36.207l24.132,24.141L166.605,201.617z "></path></g></g><g><g><path d="M64.026,26.632L39.893,2.491c-3.2-3.2-8.866-3.2-12.066,0L3.695,26.632c-1.604,1.596-2.5,3.772-2.5,6.033 s0.896,4.437,2.5,6.033L27.827,62.83c1.664,1.664,3.849,2.5,6.033,2.5c2.185,0,4.369-0.836,6.033-2.5l24.141-24.132 c1.596-1.596,2.5-3.772,2.5-6.033S65.63,28.228,64.026,26.632z M33.86,44.731L21.794,32.665L33.86,20.59l12.066,12.075 L33.86,44.731z"></path></g></g><g><g><path d="M72.764,109.047c-4.463-1.493-9.301,0.922-10.795,5.393l-12.066,36.207c-1.485,4.471,0.93,9.301,5.402,10.795 c0.896,0.299,1.801,0.444,2.697,0.444c3.567,0,6.903-2.27,8.098-5.837l12.066-36.207C79.65,115.37,77.235,110.54,72.764,109.047z"></path></g></g><g><g><path d="M142.473,225.749L64.034,147.31c-3.328-3.337-8.738-3.337-12.066,0c-3.337,3.337-3.337,8.73,0,12.066l78.438,78.438 c1.664,1.664,3.849,2.5,6.033,2.5c2.185,0,4.369-0.828,6.033-2.5C145.809,234.478,145.809,229.085,142.473,225.749z"></path></g></g><g><g><path d="M497.007,75.323c-3.337-3.337-8.738-3.337-12.066,0l-54.306,54.306l-48.273-48.273l54.306-54.306 c1.604-1.596,2.5-3.772,2.5-6.033c0-2.261-0.896-4.429-2.5-6.033c-19.959-19.968-52.446-19.959-72.405,0l-30.165,30.174 C316.399,62.856,309.376,85.35,313.208,112c2.031,14.046-2.833,27.691-12.979,36.471L24.764,385.177 c-15.258,13.32-24.038,31.804-24.721,52.045c-0.683,20.241,6.827,39.27,21.146,53.589C34.91,504.533,52.958,512,72.243,512 c0.845,0,1.698-0.017,2.551-0.051c20.241-0.683,38.716-9.464,52.079-24.764l236.638-275.388 c8.798-10.163,22.443-15.019,36.489-13.005c26.65,3.831,49.143-3.174,66.842-20.881l30.174-30.174 c9.668-9.668,14.993-22.519,14.993-36.198C512.009,97.86,506.684,85,497.007,75.323z M484.949,135.671l-30.174,30.174 c-13.884,13.875-31.01,19.132-52.335,16.06c-19.823-2.859-39.194,4.139-51.849,18.748L113.971,476.014 c-10.172,11.648-24.294,18.355-39.757,18.884c-15.428,0.435-30.012-5.214-40.951-16.154c-10.94-10.94-16.674-25.481-16.154-40.943 c0.521-15.462,7.228-29.585,18.833-39.723l275.43-236.681c14.592-12.629,21.589-32,18.731-51.831 c-3.072-21.342,2.176-38.468,16.06-52.343l30.165-30.174c6.656-6.647,15.403-9.975,24.141-9.975c6.007,0,12.015,1.57,17.348,4.71 l-53.547,53.547c-1.604,1.596-2.5,3.772-2.5,6.033c0,2.261,0.896,4.429,2.5,6.033l60.339,60.339c3.337,3.337,8.73,3.337,12.066,0 l53.538-53.538C497.929,107.281,496.171,124.45,484.949,135.671z"></path></g></g><g><g><path d="M93.611,418.406c-13.312-13.303-34.961-13.312-48.273,0c-13.312,13.312-13.312,34.961,0,48.273 c6.647,6.647,15.394,9.975,24.132,9.975c8.738,0,17.476-3.328,24.141-9.976c6.451-6.451,10.001-15.019,10.001-24.141 C103.612,433.425,100.062,424.849,93.611,418.406z M81.545,454.604c-6.656,6.647-17.485,6.647-24.141,0 c-6.656-6.656-6.656-17.485,0-24.141c3.328-3.32,7.697-4.984,12.066-4.984c4.369,0,8.738,1.664,12.075,4.983 c3.226,3.226,5.001,7.509,5.001,12.066C86.545,447.095,84.77,451.379,81.545,454.604z"></path></g></g><g><g><path d="M338.842,173.158c-3.328-3.336-8.738-3.336-12.066,0l-59.733,59.733c-3.337,3.337-3.337,8.73,0,12.066 c1.664,1.664,3.849,2.5,6.033,2.5c2.185,0,4.369-0.828,6.033-2.5l59.733-59.733C342.178,181.888,342.178,176.494,338.842,173.158z "></path></g></g><g><g><path d="M381.508,130.491c-3.328-3.337-8.738-3.337-12.066,0l-17.067,17.067c-3.337,3.337-3.337,8.73,0,12.066 c1.664,1.664,3.849,2.5,6.033,2.5c2.185,0,4.369-0.828,6.033-2.5l17.067-17.067C384.845,139.221,384.845,133.828,381.508,130.491z "></path></g></g><g><g><path d="M268.587,267.571l-24.132-24.132c-3.234-3.234-8.439-3.336-11.81-0.247L81.792,381.969 c-2.133,1.963-3.132,4.873-2.637,7.723c0.495,2.85,2.406,5.265,5.069,6.4c2.057,0.87,4.25,1.69,6.485,2.517 c5.649,2.099,11.494,4.267,14.967,7.731c3.473,3.473,5.632,9.31,7.731,14.968c0.828,2.236,1.638,4.429,2.517,6.477 c1.135,2.662,3.541,4.565,6.4,5.06c0.486,0.085,0.973,0.128,1.451,0.128c2.364,0,4.642-0.99,6.272-2.756l138.786-150.835 C271.932,276.019,271.821,270.805,268.587,267.571z M126.78,408.576c-2.133-5.043-4.838-10.112-9.037-14.31 c-4.198-4.198-9.267-6.895-14.31-9.028l134.75-123.964l12.561,12.561L126.78,408.576z"></path></g></g><g><g><path d="M257.306,195.763L118.34,56.797c-3.2-3.2-8.866-3.2-12.066,0L58.001,105.07c-3.337,3.337-3.337,8.73,0,12.066 L193.314,252.45c1.655,1.664,3.84,2.5,6.033,2.5c1.971,0,3.951-0.683,5.564-2.056l51.925-44.621 c1.801-1.544,2.876-3.78,2.961-6.153C259.891,199.748,258.987,197.444,257.306,195.763z M199.783,234.786L76.1,111.104 l36.207-36.207l126.421,126.421L199.783,234.786z"></path></g></g><g><g><path d="M432.103,370.56L316.237,254.694c-1.681-1.681-3.968-2.645-6.357-2.492c-2.372,0.094-4.608,1.169-6.153,2.97 l-44.621,51.925c-2.901,3.388-2.714,8.44,0.444,11.597l112.213,112.213c1.596,1.604,3.772,2.5,6.033,2.5 c2.261,0,4.437-0.905,6.033-2.509l48.273-48.273C435.439,379.289,435.439,373.896,432.103,370.56z M377.796,412.808 L277.214,312.226l33.468-38.946l103.322,103.322L377.796,412.808z"></path></g></g></svg>