<?xml version="1.0" encoding="UTF-8"?>
<svg id="Layer_1" data-name="Layer 1" xmlns="http://www.w3.org/2000/svg" viewBox="0 0 463.07 530.53">
  <defs>
    <style>
      .cls-1 {
        fill: #fff;
        stroke-width: 0px;
      }
    </style>
  </defs>
  <path class="cls-1" d="M183.42,254.19c-17.28-35.7-19.93-71.62-3.06-107.63,13.61-29.06,35.74-49.93,65.56-61.91,58.41-23.48,126.68,4.21,153.12,61.54,29.46,63.88-1.42,140-67.87,164.22,1.54,8.54,2.92,17.07,4.77,25.51.26,1.18,2.71,2.3,4.33,2.71,21.73,5.47,36.23,18.69,41.97,40.39,9.18,34.71-16.88,68.45-52.79,68.9-8.06.1-16.12.08-24.18.03-5.56-.03-9.02-2.95-8.89-7.33.13-4.54,3.35-7.02,9.03-7.18,10.29-.29,20.72.25,30.84-1.22,19.81-2.88,32.55-17.91,32.86-37.08.33-20.65-12.76-38.61-31.15-42.47-9.16-1.92-17.94-.12-26.4,3.55-1.48.64-2.89,1.43-4.34,2.13-4.53,2.19-8.39,1.37-10.53-2.24-2.19-3.69-1.02-8.12,3.65-10.45,5.43-2.72,11.24-4.67,16.91-6.89,1.17-.46,2.45-.64,3.62-.94-.44-27.72-21.29-66.22-63.49-78.22-41.88-11.91-82.25,7.98-100.25,39.7,4.74,3.71,9.68,7.23,14.21,11.21,9,7.89,15.46,17.66,20.01,28.69,2.6,6.28,1.5,10.45-3.12,12.31-4.32,1.74-7.8-.48-10.29-6.66-15.49-38.38-62.12-53.1-97.2-29.45-22.56,15.21-32.12,46.1-23.6,73.68,8.48,27.44,31.06,44.14,60.6,44.28,40.62.19,81.24.06,121.87.07,1.93,0,3.87-.05,5.8.06,4.5.25,7.34,3.15,7.26,7.33-.08,4.2-2.9,6.87-7.51,7.09-.64.03-1.29.02-1.93.02-41.91,0-83.83.23-125.73-.05-39.19-.27-71.92-28.65-77.84-66.86-5.95-38.44,16.44-75.14,53.62-87.51,15.23-5.07,30.67-5.26,46.22-1.09,1.54.41,4.44-.16,5.14-1.27,9.74-15.46,22.51-27.68,38.8-36.97ZM184.48,183.42c1.69,0,2.32.05,2.95,0,39.03-3.57,71.7,21.46,78.31,60.19.49,2.9,1.84,4.02,4.29,4.97,18.5,7.14,33.7,18.7,45.54,34.61,3.24,4.36,6.08,9.01,9.07,13.48,55.55-18.51,82.64-80.81,66.37-128.84-15.56,2.66-28.88-1.66-38.08-14.85-9.29-13.33-8.5-27.46-.28-41.62-35.02-23.09-71.42-27.57-109.05-9.68-34.01,16.16-52.92,44.17-59.11,81.76ZM250.09,242.9c.27-.6.4-.75.38-.86-4.72-27.22-33.26-49.12-64.17-43.69-.94.17-2.34,1.84-2.31,2.77.63,16.49,4.8,32.01,13,46.9,17.42-6.37,35.2-7.69,53.09-5.12ZM364.23,121.8c-4.68,7.1-4.36,15.82.58,22.96,4.74,6.85,13.21,10.32,21.3,8.42-5.33-11.9-12.53-22.28-21.88-31.38Z"/>
  <path class="cls-1" d="M81.97,188.59c-18.26-.25-32.58-14.97-32.39-33.29.19-17.77,15.16-32.23,33.16-32.02,17.83.2,32.57,15.34,32.17,33.02-.4,18.09-15.14,32.53-32.94,32.29ZM100.36,155.96c.03-9.96-8.04-18.06-18.1-18.16-9.83-.1-18.19,8.22-18.17,18.1.02,9.93,8.21,18.15,18.11,18.17,9.9.02,18.13-8.19,18.16-18.11Z"/>
  <path class="cls-1" d="M151.79,76.53c11.91.04,21.53,9.61,21.58,21.47.05,12.37-9.83,22.24-22.06,22.04-11.83-.19-21.38-9.93-21.39-21.79,0-12.06,9.77-21.77,21.87-21.73ZM158.83,98.05c-.11-3.85-3.3-7-7.11-7-3.96,0-7.41,3.51-7.27,7.4.14,3.89,3.77,7.21,7.68,7.02,3.73-.18,6.8-3.59,6.69-7.42Z"/>
  <path class="cls-1" d="M118.18,265.32c-12.14.04-21.71-9.61-21.66-21.82.05-11.83,9.65-21.48,21.49-21.64,11.83-.15,22.02,9.89,22.04,21.7.02,12-9.75,21.72-21.87,21.76ZM125.42,243.89c.11-3.8-2.99-7.23-6.71-7.44-3.99-.23-7.5,2.98-7.64,6.98-.13,3.91,2.79,7.14,6.67,7.35,4.07.23,7.57-2.91,7.68-6.89Z"/>
  <path class="cls-1" d="M274.39,447.92c-3.85-.11-7-3.32-7.03-7.17-.03-4.03,3.39-7.4,7.4-7.3,4.06.1,7.16,3.52,6.94,7.67-.2,3.91-3.42,6.91-7.31,6.8Z"/>
  <path class="cls-1" d="M274.52,169.4c-16.13,0-28.97-13.02-28.89-29.3.08-15.84,13.25-28.89,29.02-28.74,15.94.15,28.93,13.1,28.98,28.88.05,16.13-12.96,29.16-29.11,29.16ZM260.18,140.44c.01,8.04,6.29,14.37,14.31,14.44,8.12.07,14.68-6.56,14.59-14.73-.09-7.58-6.61-14.16-14.15-14.27-8.16-.11-14.76,6.41-14.75,14.56Z"/>
  <path class="cls-1" d="M363.78,227.37c-.13,13.93-11.47,25.15-25.38,25.11-14.11-.04-25.63-11.66-25.4-25.62.23-14,11.5-25.14,25.41-25.14,14.07,0,25.5,11.56,25.37,25.64ZM338.59,237.94c5.93-.1,10.61-4.9,10.62-10.89,0-6.14-5.01-10.92-11.23-10.7-6.02.21-10.48,4.99-10.34,11.08.14,5.98,4.97,10.61,10.95,10.51Z"/>
</svg>