<?xml version="1.0" encoding="UTF-8"?>
<svg id="Layer_1" data-name="Layer 1" xmlns="http://www.w3.org/2000/svg" viewBox="0 0 505.53 480.26">
  <defs>
    <style>
      .cls-1 {
        fill: #fff;
        stroke-width: 0px;
      }
    </style>
  </defs>
  <path class="cls-1" d="M59.6,224.29c.73-6.54,1.29-13.1,2.21-19.61,4.47-31.62,14.93-60.71,36.72-84.81,19.3-21.35,43.44-34.15,71.58-39.46,29.94-5.65,59.16-2.01,87.79,7.61,18.99,6.37,36.76,15.28,53.41,26.39,2.25,1.5,3.8,1.58,6.13.09,20.92-13.38,42.37-25.82,65.08-35.97,10.38-4.64,20.91-9.03,32.35-10.25,3.57-.38,7.39-.18,10.86.68,7.18,1.78,11.07,9.23,9.41,17.13-1.86,8.85-6.69,16.23-11.99,23.28-13.75,18.28-30.1,34.08-47.27,49.09-2.11,1.85-4.22,3.7-6.56,5.76.85,1.14,1.57,2.22,2.4,3.21,17.49,20.91,31.39,43.96,40.76,69.58,13.98,38.22,18.27,77.23,7.48,116.99-4.85,17.9-13,34.27-26.22,47.69-20.66,20.98-45.67,27.28-74.03,21.31-28.45-5.98-49.72-21.73-62.41-48.08-7.79-16.17-14.79-32.71-22.1-49.11-3.84-8.61-9.65-15.03-19.17-17.13-12.11-2.68-25.69,4.48-29.92,16.38-2.48,6.97-3.76,14.38-5.35,21.64-2.14,9.78-5.84,18.74-13.63,25.36-11.26,9.57-24.07,9.88-37.29,5.13-17.03-6.11-29.35-18.21-39.6-32.58-16.43-23.02-24.98-49.04-28.52-76.86-.84-6.64-1.43-13.31-2.13-19.97,0-7.83,0-15.67,0-23.5ZM300.58,125.04c-.38-.33-.54-.52-.74-.64-33.98-21.13-70.34-33.96-110.99-31.6-18.07,1.05-35.18,5.68-51.05,14.48-27.92,15.48-45.17,39.53-54.66,69.41-10.16,31.99-11.19,64.68-5.62,97.59,4.22,24.95,12.99,48.11,29.34,67.87,7.49,9.05,16.16,16.68,27.32,21.02,15.26,5.93,27.01,0,31.21-15.79.6-2.24.98-4.54,1.53-6.79,1.67-6.75,2.87-13.67,5.16-20.2,6.94-19.8,31.29-32.88,52.77-24.29,11.14,4.45,18.76,12.48,23.61,23.34,7.36,16.51,14.36,33.19,22.28,49.43,9.67,19.85,25.48,32.73,46.94,38.54,22.99,6.22,44.15,3.57,62.4-12.82,11.09-9.96,18.26-22.58,23.18-36.46,10.14-28.63,10.03-57.82,3.84-87.17-6.48-30.74-19.77-58.44-38.34-83.67-3.44-4.68-7.24-9.09-10.47-13.11-16.59,11.47-32.44,22.97-48.83,33.63-23.3,15.14-47.57,28.55-74.02,37.55-2.17.74-2.99,1.83-3.41,4.05-2.9,15.34-14.99,26.95-30.51,29.16-7.02,1-14.1,1.57-21.17,2.07-2.37.17-2.97,1.09-3.36,3.25-5.07,28.14-37.44,39.97-59.54,21.82-12.92-10.61-16.92-29.75-9.24-44.2,8.58-16.15,25.96-23.98,42.55-18.86,3.48,1.07,4.8.3,6.24-2.91,2.95-6.56,5.68-13.44,9.92-19.14,8.92-11.99,21.3-16.56,36.2-14.14,1.48.24,3.79-.35,4.67-1.42,17.68-21.52,38.59-39.56,60.59-56.41,10.47-8.02,21.26-15.6,32.19-23.58ZM420.85,82.63c-1.83.1-3.28.06-4.7.27-11.38,1.7-21.87,6.15-32.08,11.08-44.79,21.63-85.98,48.89-124.39,80.43-.62.51-1.11,1.16-1.68,1.76,7.55,10.77,14.96,21.35,22.42,31.99.72-.36,1.15-.55,1.56-.79,24.03-13.96,46.99-29.51,68.65-46.93,22.25-17.9,43.4-36.96,60.69-59.88,4.01-5.32,7.91-10.8,9.52-17.93ZM159.91,267.75c13.79-1.28,26.92-2.27,39.98-3.8,9.6-1.13,17.36-9.93,18.26-19.75.87-9.52-5.27-19.22-14.06-22.21-10.38-3.53-21.49-.42-26.29,8.58-6.37,11.92-11.77,24.35-17.89,37.18ZM232.44,231.43c11.31-5.07,23.16-10.38,35.26-15.8-7.2-10.27-13.99-19.95-21.19-30.23-9.28,9.56-18.25,18.81-26.66,27.47,4.33,6.38,8.12,11.97,12.59,18.56ZM148.61,257.48c-8.29-3.51-18.01-1.11-23.98,5.67-6.43,7.3-7.41,17.54-2.46,25.91,4.81,8.14,14.68,12.27,24.04,10.05,8.25-1.96,15.14-9.2,15.82-16.82-3.92.31-7.81.62-11.7.92-7.98.62-11.53-4.53-8.15-11.89,2.08-4.55,4.22-9.07,6.44-13.83Z"/>
  <path class="cls-1" d="M295.28,343.56c.12-20.04,16.85-36.5,36.95-36.36,19.97.13,36.63,17.02,36.44,36.94-.18,19.9-17.21,36.66-37.03,36.45-20.02-.22-36.49-16.99-36.37-37.03ZM309.98,343.95c.06,12.01,10.02,21.95,21.97,21.92,11.93-.03,21.92-9.99,22.01-21.95.09-12.07-10.04-22.11-22.23-22.03-12.04.09-21.82,10-21.76,22.06Z"/>
  <path class="cls-1" d="M126.38,160.25c0-20.11,16.54-36.63,36.66-36.64,20.01,0,36.74,16.68,36.74,36.65,0,19.84-16.92,36.76-36.76,36.75-19.94,0-36.65-16.77-36.65-36.76ZM141.08,160.42c.08,11.99,10.11,21.95,22.03,21.87,11.91-.08,21.96-10.16,21.96-22.04,0-12.12-10.11-22.07-22.31-21.94-12.08.12-21.75,9.99-21.68,22.11Z"/>
  <path class="cls-1" d="M346.57,219.08c20.03-.03,36.75,16.6,36.79,36.58.05,19.86-16.8,36.76-36.68,36.8-19.94.04-36.7-16.7-36.72-36.68-.02-20.09,16.51-36.67,36.6-36.7ZM346.55,233.78c-12.07.02-21.89,9.86-21.89,21.92,0,12.02,9.83,21.94,21.84,22.05,11.99.11,22.29-10.21,22.15-22.19-.15-12.04-10.05-21.8-22.1-21.78Z"/>
  <path class="cls-1" d="M375.22,120.11c-1.72,2.59-2.61,5.03-4.35,6.4-14.31,11.29-28.73,22.42-43.2,33.49-3.87,2.96-8.2,2.4-10.77-.96-2.55-3.33-1.95-7.65,1.9-10.65,14.36-11.22,28.8-22.34,43.24-33.44,2.5-1.92,5.55-2.66,8.2-.82,1.9,1.32,3.11,3.65,4.99,5.98Z"/>
  <path class="cls-1" d="M306.76,171.33c.1,3.98-3.07,7.3-7.06,7.39-4,.1-7.25-3.04-7.33-7.07-.08-4.01,3.06-7.34,7.01-7.44,3.92-.1,7.28,3.15,7.38,7.11Z"/>
</svg>