<?xml version="1.0" encoding="UTF-8"?>
<svg id="Layer_1" data-name="Layer 1" xmlns="http://www.w3.org/2000/svg" viewBox="0 0 557.29 530.53">
  <defs>
    <style>
      .cls-1 {
        fill: #fff;
        stroke-width: 0px;
      }
    </style>
  </defs>
  <path class="cls-1" d="M253.28,443.69c-7.14-2.08-14.49-4.34-18.98-10.56-4.28-5.92-8.99-9.24-16.42-11.15-11.89-3.05-16.3-17.78-9.91-28.38.6-1,1.26-1.95,2.04-3.15-4.88-6.35-6.62-13.41-3.38-21.04,3.25-7.65,9.45-11.42,17.95-12.39-.23-10.7-3.61-20.28-9.57-29.94-3.69,6.36-7.15,12.32-10.81,18.63-3.82-2.18-7.47-4.27-11.48-6.56,4.41-7.72,8.69-15.21,13.13-22.96-15.31-11.07-28.87-23.64-39.14-39.89-7.91,4.54-15.5,8.89-23.41,13.44-2.22-3.84-4.28-7.39-6.64-11.47,7.71-4.47,15.27-8.87,22.96-13.33-2.41-6.11-5.41-11.92-7-18.1-2.76-10.76-4.79-21.73-6.79-32.67-.47-2.58-1.1-3.52-3.77-3.47-7.65.15-15.31.05-23.26.05v-13.22h26.62c1.16-19,5.81-36.81,14.48-53.97-7.68-4.48-15.26-8.89-23.22-13.54,2.22-3.86,4.32-7.51,6.61-11.48,7.82,4.5,15.42,8.86,23.25,13.36,10.41-15.88,23.36-29.01,39.56-39.35-4.48-7.82-8.83-15.42-13.38-23.36,3.81-2.22,7.35-4.29,11.43-6.66,4.5,7.77,8.94,15.44,13.35,23.04,6.17-2.45,11.88-5.44,17.97-6.99,10.77-2.74,21.73-4.74,32.67-6.73,2.58-.47,3.55-1.11,3.5-3.79-.15-7.76-.05-15.53-.05-23.44h13.36c0,7.46.21,14.84-.09,22.2-.15,3.74,1.03,4.79,4.73,4.97,14.14.7,27.62,4.39,40.61,9.92,2.85,1.21,5.64,2.54,8.74,3.95,4.47-7.71,8.87-15.3,13.42-23.14,3.87,2.24,7.43,4.3,11.45,6.63-4.45,7.77-8.8,15.37-13.38,23.37,15.84,10.5,28.98,23.61,39.43,39.47,7.88-4.53,15.4-8.86,23.34-13.44,2.17,3.74,4.3,7.39,6.67,11.46-7.76,4.5-15.34,8.9-23.25,13.49,8.53,16.9,13.4,34.64,14.53,53.85h26.64v13.4c-6.64,0-13.21,0-19.78,0-6.65,0-6.79-.01-7.42,6.55-1.6,16.6-6.26,32.29-13.84,47.56,7.6,4.4,15.09,8.74,23.1,13.38-2.16,3.76-4.26,7.4-6.61,11.49-7.76-4.46-15.34-8.81-23.26-13.36-10.27,16.15-23.94,28.61-39.32,39.79,4.38,7.63,8.62,15.02,13.15,22.92-3.71,2.16-7.34,4.28-11.42,6.66-3.55-6.08-7.05-12.07-10.82-18.54-5.99,9.28-9.23,18.88-9.7,29.74,8.13.99,14.53,4.52,17.84,12.11,3.32,7.6,1.91,14.71-3.27,21.3,3.84,5.35,6.05,11.09,4.45,17.84-2.04,8.61-9.02,14.9-17.88,15.27-3.27.14-4.91,1.31-6.53,4.14-4.53,7.92-11.6,12.77-20.41,15.1-.97.26-1.91.64-2.87.97h-49.9ZM318.26,357c.17-1.39.21-2.68.51-3.91,1.79-7.27,2.97-14.79,5.62-21.73,5.26-13.75,15.5-23.55,26.91-32.58,34.54-27.3,50.43-63.35,45.88-107.02-4.36-41.87-25.85-73.81-63.25-93.31-39.61-20.65-79.7-19.22-118.05,3.8-31.09,18.67-49.63,46.73-55.57,82.55-5.52,33.27,2.21,63.61,22,90.92,8.42,11.62,19.48,20.4,30.47,29.37,12.27,10.01,20,23.03,23.43,38.5.97,4.4,1.49,8.89,2.22,13.4h79.83ZM278.24,383.74c16.76,0,33.52,0,50.28,0,1.3,0,2.62.06,3.89-.14,3.42-.54,5.36-2.79,5.58-6.07.21-3.11-1.31-5.61-4.49-6.49-1.72-.48-3.58-.56-5.38-.57-33.26-.03-66.52-.03-99.77,0-1.92,0-3.93.12-5.74.7-2.95.94-4.32,3.42-4.12,6.36.21,3.12,2.01,5.34,5.21,5.99,1.38.28,2.84.21,4.27.21,16.76.01,33.52,0,50.28,0ZM278.28,410.36c17.41,0,34.82.04,52.23-.03,4.67-.02,7.61-2.75,7.57-6.61-.03-3.68-2.88-6.28-7.28-6.63-.78-.06-1.56-.03-2.34-.03-33.52,0-67.04,0-100.55.02-1.67,0-3.41.11-4.99.58-3.14.94-4.65,3.42-4.43,6.53.22,3.1,2,5.35,5.25,5.93,1.52.27,3.1.23,4.66.23,16.63.01,33.26,0,49.89,0ZM243.97,423.92c3.36,3.83,7.1,5.97,11.25,6.04,15.28.29,30.58.31,45.87.02,4.21-.08,8.11-2.11,11.26-6.07h-68.37Z"/>
  <path class="cls-1" d="M200.27,161.04c-3.65-11.69-1.74-21.8,7.33-30.05,1.52-1.38,3.22-2.97,5.1-3.47,4.89-1.3,6.93-4.65,8.98-8.97,4.96-10.44,17.21-15.98,28.44-13.63,11.75,2.46,20.25,12.01,21.18,23.82.12,1.55.25,3.11.25,4.67.01,47.16-.03,94.32.04,141.48.01,10.46-3.38,19.06-12.43,24.89-14.08,9.07-33.2,2.75-38.91-13.02-.93-2.55-2.31-3.64-4.76-4.34-15.77-4.5-25.75-20.38-23.4-36.71.19-1.32-.5-3.41-1.51-4.16-28.15-21.03-23.93-64.57,8.13-79.52.46-.21.87-.53,1.56-.97ZM219.25,139.31c-5.54,2.69-8.34,8.05-7.21,14.14.52,2.81,1.57,4.32,5.09,4.36,5.58.05,11.15,1.13,17.34,1.85-1.87,5.08-3.32,9.02-4.74,12.88-21.42-3.46-35.71,3.17-42.23,19.3-5.58,13.81-.96,30.09,10.91,38.52,3.18-2.8,6.35-5.59,9.82-8.65,2.43,4.2,4.55,7.86,6.73,11.62-7.68,5.5-11.27,12.58-9.29,21.72,1.61,7.43,6.36,12.23,13.22,14.47,2.75-4.25,5.38-8.29,8.29-12.78,2.54,2.92,4.42,5.04,6.27,7.19.92,1.06,1.78,2.17,2.75,3.35-.57.74-1.04,1.35-1.51,1.96-3.91,5.07-3.86,11.44.14,16.5,3.67,4.65,10.25,6.15,15.82,3.47,5.74-2.77,7.6-7.72,7.59-13.77-.03-47.55-.01-95.11-.03-142.66,0-1.29-.08-2.61-.29-3.88-.92-5.57-4.27-9.17-9.57-10.64-5-1.38-9.53-.03-13.08,3.88-4.55,5.02-4.54,10.44-.04,18.23-3.04,2.92-6.1,5.86-9.63,9.26-2.06-3.34-4.2-6.81-6.36-10.3Z"/>
  <path class="cls-1" d="M356.17,161.23c9.11,4.12,16.31,10.21,21.58,18.59,12.26,19.5,7.58,46.61-10.73,60.62-2.34,1.79-3.16,3.32-2.65,6.41,2.49,15.02-8.1,31.23-23.02,35.44-2.77.78-4.27,2.01-5.29,4.8-4.02,11.09-16.09,18.28-27.5,16.73-12.82-1.74-22.43-11.54-23.39-23.89-.14-1.81-.26-3.63-.26-5.45-.01-46.91.04-93.81-.05-140.72-.02-10.44,3.16-19.15,12.15-25.06,14.35-9.43,33.57-2.92,39.52,13.2.55,1.48,1.86,3.19,3.25,3.75,14.72,5.93,21.07,18.67,16.7,33.91-.11.37-.15.76-.31,1.65ZM322.01,159.64c6.27-.72,11.76-1.81,17.25-1.81,3.73,0,4.76-1.64,5.22-4.63.92-6.09-1.63-10.95-7.18-13.96-2.2,3.51-4.4,7.02-6.16,9.83-3.57-3.39-6.65-6.3-9.77-9.25.24-.36.61-.89.96-1.44,3.53-5.41,3.03-11.77-1.3-16.46-4.08-4.42-10.6-5.47-16.04-2.39-5.55,3.15-6.79,8.35-6.78,14.29.06,46.91.03,93.81.04,140.72,0,1.55.06,3.12.27,4.66.75,5.43,3.91,9.03,8.99,10.69,4.96,1.62,9.63.52,13.29-3.19,3.74-3.8,4.94-8.53,3.05-13.64-.78-2.12-2.21-4-3.43-6.15,2.76-3.14,5.55-6.3,8.92-10.14,2.93,4.55,5.49,8.53,8.2,12.76,6.84-2.19,11.59-6.99,13.21-14.39,1.99-9.11-1.52-16.24-9.24-21.8,2.15-3.72,4.27-7.39,6.7-11.6,3.51,3.06,6.76,5.9,9.97,8.7,12.12-9.56,16.32-24.71,10.78-38.49-2.76-6.85-7.27-12.25-13.58-16.08-8.95-5.44-18.51-6.17-28.6-3.1-1.52-4.17-2.93-8.03-4.78-13.13Z"/>
</svg>