<?xml version="1.0" encoding="UTF-8"?>
<svg id="Layer_1" data-name="Layer 1" xmlns="http://www.w3.org/2000/svg" viewBox="0 0 557.29 530.53">
  <defs>
    <style>
      .cls-1 {
        fill: #fff;
        stroke-width: 0px;
      }
    </style>
  </defs>
  <path class="cls-1" d="M297.11,87.04c-7.2-7-13.17-12.92-19.27-18.69-5.45-5.16-8.07-11.23-5.57-18.54,2.57-7.51,8.49-10.65,16.18-11.29,25.19-2.09,50.36-4.42,75.55-6.46,10.68-.86,18.49,6.76,17.65,17.5-2.03,25.82-4.37,51.61-6.68,77.41-.63,6.98-4.22,12.06-10.93,14.42-6.7,2.35-12.61.64-17.53-4.41-6.28-6.45-12.52-12.94-19.39-20.05-8.3,8.5-15.83,16.37-23.52,24.06-63.3,63.35-126.62,126.68-189.99,189.97-2.09,2.08-2.67,3.97-2.24,6.97,2.38,16.58,4.68,11.65-8.12,24.58-9,9.09-18.09,18.1-27.1,27.18-2.41,2.43-4.87,4.43-8.62,3.23-3.73-1.2-4.66-4.24-5.19-7.62-1.34-8.47-2.84-16.93-3.99-25.43-.41-3.05-1.69-4.18-4.66-4.58-8.34-1.13-16.64-2.58-24.96-3.87-3.35-.52-6.55-1.29-7.79-4.98-1.28-3.81.61-6.47,3.23-9.06,11.21-11.07,22.35-22.21,33.41-33.43,2.63-2.67,5.52-4.38,9.16-3.08,9.91,3.55,16.24-.74,23.23-7.79,67.02-67.57,134.44-134.76,201.77-202.03,1.32-1.32,3.01-2.26,5.38-4ZM107.94,315.25c69.46-69.47,138.85-138.87,207.86-207.89-3-3.24-6.35-6.86-8.98-9.7-69.53,69.47-138.88,138.76-208.24,208.07,5.94.16,9.3,3.57,9.36,9.52ZM361.01,46.27c-16.31,1.42-32.62,2.84-48.93,4.26-7.61.66-15.23,1.28-22.82,2.08-1.21.13-3.04.93-3.3,1.8-.28.96.85,2.4,1.52,3.54.38.65,1.07,1.12,1.62,1.67,15.42,15.44,30.83,30.89,46.26,46.33,6.83,6.84,13.66,13.69,20.58,20.43.86.84,2.42,1.54,3.5,1.37.7-.11,1.23-1.89,1.66-2.99.27-.7.24-1.53.3-2.31,1.99-23.3,4-46.6,5.94-69.91.56-6.68.45-6.69-6.33-6.26ZM41.89,339.28c6.71,1.11,12.04,2.18,17.42,2.76,1.36.15,3.18-.95,4.27-2.01,5.72-5.49,11.28-11.15,16.87-16.77,1.47-1.47,2.88-2.99,4.87-5.05-6.2-1.05-11.36-2.03-16.57-2.73-1.2-.16-2.89.3-3.73,1.11-7.49,7.19-14.85,14.52-23.13,22.69ZM74.44,371.47c8.18-8.16,15.66-15.57,23.07-23.06.58-.58,1.04-1.69.93-2.46-.82-5.59-1.81-11.15-2.96-18.01-8.29,8.39-15.72,15.86-23.04,23.42-.63.65-.93,2-.79,2.95.77,5.38,1.72,10.73,2.79,17.16Z"/>
  <path class="cls-1" d="M413.87,204.06c-7.25-7.17-13.28-13.26-19.45-19.21-5.31-5.12-7.6-11.11-5.14-18.21,2.46-7.1,8-10.5,15.31-11.14,25.79-2.27,51.58-4.62,77.39-6.67,9.77-.78,17.26,7.28,16.7,17.66-.49,9.03-1.42,18.04-2.2,27.05-1.41,16.32-2.89,32.63-4.29,48.94-.64,7.47-3.78,13.27-11.13,15.8-7.28,2.51-13.36.16-18.57-5.34-5.79-6.1-11.83-11.97-18.02-18.21-1.14.91-2.14,1.57-2.96,2.39-70.39,70.36-140.75,140.74-211.17,211.07-1.98,1.98-2.44,3.83-2.04,6.61,2.43,16.6,4.16,12.28-7.79,24.29-9.13,9.18-18.34,18.28-27.44,27.49-2.44,2.46-4.93,4.35-8.63,3.22-3.76-1.14-4.68-4.2-5.2-7.59-1.31-8.48-2.74-16.94-3.95-25.43-.39-2.72-1.44-4.03-4.31-4.42-8.49-1.17-16.95-2.65-25.42-4-3.35-.53-6.47-1.36-7.63-5.15-1.13-3.69.7-6.19,3.17-8.64,11.31-11.19,22.59-22.41,33.75-33.74,2.66-2.7,5.52-4.27,9.16-2.94,9.51,3.46,15.67-.54,22.45-7.37,65.8-66.33,131.98-132.28,198.09-198.31,2.74-2.74,5.83-5.12,9.31-8.16ZM424.01,214.63c-69.61,69.58-138.99,138.93-208.28,208.19,5.8.05,9.2,3.39,9.21,9.4,69.5-69.39,138.95-138.72,208.17-207.83-3.13-3.36-6.5-6.97-9.1-9.76ZM484.46,168.59c-.58-1.96,2.12-6.16-3.9-5.62-24.38,2.21-48.78,4.17-73.16,6.33-1.55.14-3.03,1.16-4.54,1.77.79,1.55,1.26,3.42,2.43,4.59,21.99,22.11,44.05,44.15,66.16,66.14,1.33,1.32,3.23,2.06,4.86,3.07.7-1.79,1.87-3.53,2.04-5.37,2.1-23.45,4.06-46.91,6.11-70.92ZM191.53,488.9c8.27-8.41,15.58-15.81,22.83-23.26.59-.61,1.22-1.66,1.11-2.4-.82-5.73-1.82-11.43-2.93-18.21-8.16,8.24-15.51,15.59-22.75,23.06-.74.76-1.24,2.24-1.09,3.29.73,5.38,1.71,10.73,2.84,17.52ZM202.32,436.41c-.33-.48-.65-.96-.98-1.44-5.31-.9-10.61-1.86-15.94-2.63-.94-.14-2.28.17-2.93.8-7.66,7.42-15.22,14.93-23.45,23.06,3.35.57,5.72.65,7.85,1.4,8.23,2.89,14.19.32,19.69-6.28,4.59-5.52,10.45-9.98,15.75-14.9Z"/>
</svg>