<svg width="100" height="100" viewBox="0 0 100 100" fill="none" xmlns="http://www.w3.org/2000/svg">
<g clip-path="url(#clip0_307_2)">
<path d="M85.3564 14.6437C75.9133 5.20059 63.3566 0 50 0C36.6434 0 24.0867 5.20059 14.6436 14.6437C5.20059 24.0867 0 36.6434 0 50C0 63.3566 5.20059 75.9133 14.6436 85.3562C24.0867 94.7994 36.6434 100 50 100C63.3566 100 75.9133 94.7994 85.3564 85.3562C94.7994 75.9133 100 63.3566 100 50C100 36.6434 94.7994 24.0867 85.3564 14.6437ZM83.1695 83.1695C74.3104 92.0283 62.5305 96.9072 50 96.9072C37.4695 96.9072 25.6896 92.0283 16.8305 83.1695C7.97148 74.3105 3.09277 62.5307 3.09277 50C3.09277 37.4693 7.97148 25.6895 16.8305 16.8305C25.6896 7.97168 37.4695 3.09277 50 3.09277C62.5305 3.09277 74.3104 7.97168 83.1695 16.8305C92.0285 25.6895 96.9072 37.4691 96.9072 50C96.9072 62.5309 92.0285 74.3105 83.1695 83.1695Z" fill="black"/>
<path d="M50 9.27832C44.2385 9.27832 38.6701 10.4596 33.4496 12.7889C28.409 15.0379 23.9395 18.241 20.1676 22.3066C13.1455 29.8412 9.27832 39.6766 9.27832 50C9.27832 60.3234 13.1455 70.1588 20.1654 77.691C23.9398 81.7588 28.4092 84.9621 33.45 87.2111C38.6701 89.5404 44.2387 90.7217 50.0002 90.7217C55.6316 90.7217 61.0836 89.5928 66.2043 87.3666C71.1606 85.2119 75.5742 82.1361 79.3178 78.2301C86.6715 70.6307 90.7219 60.6051 90.7219 50C90.7217 27.5459 72.4541 9.27832 50 9.27832ZM77.0897 76.0848C69.9555 83.5291 60.3348 87.6289 50 87.6289C44.6756 87.6289 39.5313 86.5379 34.7102 84.3869C30.0523 82.3086 25.9217 79.3482 22.4301 75.5852C15.9436 68.6246 12.3711 59.5383 12.3711 50C12.3711 40.4617 15.9436 31.3754 22.4326 24.4125C25.9217 20.652 30.0523 17.6914 34.7102 15.6131C39.5313 13.4621 44.6756 12.3711 50 12.3711C70.7486 12.3711 87.6289 29.2514 87.6289 50C87.6289 59.7982 83.8879 69.0598 77.0897 76.0848Z" fill="black"/>
<path d="M51.5463 14.9484H48.4535V24.2267H51.5463V14.9484Z" fill="black"/>
<path d="M51.5463 75.7733H48.4535V85.0516H51.5463V75.7733Z" fill="black"/>
<path d="M85.0515 48.4535H76.8041V51.5463H85.0515V48.4535Z" fill="black"/>
<path d="M23.1959 48.4535H14.9485V51.5463H23.1959V48.4535Z" fill="black"/>
<path d="M25.3191 25.1938L23.1322 27.3807L29.3182 33.5667L31.5051 31.3798L25.3191 25.1938Z" fill="black"/>
<path d="M73.6522 25.1947L67.4662 31.3807L69.6531 33.5676L75.8391 27.3816L73.6522 25.1947Z" fill="black"/>
<path d="M69.6493 66.432L67.4624 68.6189L73.6484 74.8049L75.8353 72.618L69.6493 66.432Z" fill="black"/>
<path d="M29.3221 66.4326L23.1361 72.6186L25.323 74.8055L31.509 68.6195L29.3221 66.4326Z" fill="black"/>
<path d="M51.5465 48.3287V29.3814H48.4535V49.6096L63.3394 64.4955L65.5265 62.3086L51.5465 48.3287Z" fill="black"/>
</g>
<defs>
<clipPath id="clip0_307_2">
<rect width="100" height="100" fill="white"/>
</clipPath>
</defs>
</svg>
