<svg width="101" height="100" viewBox="0 0 101 100" fill="none" xmlns="http://www.w3.org/2000/svg">
<path d="M50.3252 17.9629C55.2855 17.9629 59.3067 13.9418 59.3067 8.98145C59.3067 4.02113 55.2855 0 50.3252 0C45.3649 0 41.3438 4.02113 41.3438 8.98145C41.3438 13.9418 45.3649 17.9629 50.3252 17.9629Z" fill="black"/>
<path d="M71.7478 58.6294L69.4347 25.1065C69.2818 22.8855 67.3934 21.2044 65.1929 21.2671H35.4577C33.2503 21.2034 31.3686 22.8852 31.2153 25.1065L28.9023 58.6294C28.7455 60.9049 30.4629 62.8774 32.7388 63.0345C35.0402 63.188 36.9884 61.4543 37.1439 59.1979L38.7128 36.4629L38.7954 94.9033C38.7954 97.5724 40.8464 99.8688 43.5124 99.9943C46.3587 100.128 48.7087 97.8604 48.7087 95.0433V63.8159C48.7087 62.9033 49.4485 62.1638 50.3608 62.1638C51.2734 62.1638 52.0129 62.9036 52.0129 63.8159V94.9033C52.0129 97.5724 54.064 99.8688 56.7299 99.9943C59.5763 100.128 61.9262 97.8604 61.9262 95.0433L62.0089 37.5089L63.5055 59.1979C63.661 61.4505 65.6057 63.189 67.9106 63.0345C70.1871 62.8774 71.9048 60.9052 71.7478 58.6294ZM53.6436 40.9159L51.3217 44.5689C50.8578 45.2986 49.7926 45.2986 49.3287 44.5689L47.0068 40.9159C46.8374 40.6497 46.7819 40.3268 46.8522 40.0194L48.9402 28.9484L47.569 27.5776C47.1124 27.121 47.1124 26.3805 47.569 25.9239L49.4983 23.9946C49.955 23.538 50.6954 23.538 51.152 23.9946L53.081 25.9239C53.5376 26.3805 53.5376 27.121 53.081 27.5776L51.7102 28.9484L53.7981 40.0194C53.8684 40.3268 53.8126 40.6497 53.6436 40.9159Z" fill="black"/>
</svg>
