<svg width="100" height="100" viewBox="0 0 100 100" fill="none" xmlns="http://www.w3.org/2000/svg">
<path d="M55.5467 46.646C56.6752 46.646 57.59 45.7312 57.59 44.6028C57.59 43.4743 56.6752 42.5595 55.5467 42.5595C54.4182 42.5595 53.5034 43.4743 53.5034 44.6028C53.5034 45.7312 54.4182 46.646 55.5467 46.646Z" fill="black"/>
<path d="M67.2223 32.9736C68.7176 32.9736 69.9298 31.7614 69.9298 30.2661C69.9298 28.7708 68.7176 27.5587 67.2223 27.5587C65.7271 27.5587 64.5149 28.7708 64.5149 30.2661C64.5149 31.7614 65.7271 32.9736 67.2223 32.9736Z" fill="black"/>
<path d="M43.7761 30.3933C45.7809 30.3933 47.4062 28.768 47.4062 26.7632C47.4062 24.7583 45.7809 23.1331 43.7761 23.1331C41.7712 23.1331 40.146 24.7583 40.146 26.7632C40.146 28.768 41.7712 30.3933 43.7761 30.3933Z" fill="black"/>
<path d="M81.6906 14.8264C77.2893 9.31961 65.8574 0 50.927 0C40.9441 0 31.4447 4.17356 22.6933 12.4046C22.6783 12.4189 22.6635 12.4332 22.6492 12.448C14.1149 21.2274 15.23 29.3372 16.6426 39.6102C16.7294 40.242 16.8175 40.8827 16.9048 41.533C17.1388 43.2788 15.6108 45.9719 14.1329 48.5767C11.9122 52.4902 9.61621 56.537 12.4213 58.4485C17.2147 61.7154 18.0476 68.1455 18.8537 74.3669C19.0452 75.8443 19.2432 77.3721 19.4906 78.8573C19.9175 81.4199 22.0797 82.6654 26.1005 82.6654C27.8883 82.6654 29.7975 82.4445 31.6453 82.231C33.2286 82.0483 34.7243 81.8752 35.9215 81.8752C36.5908 81.8752 37.1137 81.9285 37.5196 82.0386C42.3505 83.3478 46.5706 93.1155 48.0963 98.9647C48.22 99.4397 48.5858 99.8133 49.0577 99.9471C49.1825 99.9827 49.3097 100 49.4359 100C49.7872 100 50.131 99.8661 50.392 99.6169L75.1521 75.9872C75.5354 75.6212 75.6762 75.0689 75.5151 74.5638C73.3287 67.7238 77.872 61.0482 81.8815 55.1556C83.631 52.5846 85.2833 50.1566 86.4134 47.7646C91.6262 36.7317 87.871 22.5594 81.6906 14.8264ZM47.4593 38.1208L46.5372 36.6572C45.8534 36.8478 45.1581 36.9664 44.462 37.0119L44.0792 38.6993C43.9416 39.3051 43.3389 39.6849 42.7331 39.5472L39.1978 38.7445C38.5918 38.6068 38.2122 38.0042 38.3495 37.3984L38.7326 35.711C38.1243 35.3695 37.5485 34.9624 37.014 34.4953L35.5507 35.4172C35.025 35.7484 34.3301 35.5908 33.999 35.0651L32.0667 31.9978C31.7355 31.4719 31.8931 30.7773 32.4188 30.4461L33.8822 29.5242C33.6916 28.8404 33.5729 28.1451 33.5277 27.449L31.8401 27.066C31.2345 26.9284 30.8546 26.3256 30.9922 25.7198L31.7948 22.1846C31.9324 21.5786 32.5351 21.199 33.1412 21.3365L34.8286 21.7196C35.1699 21.111 35.5772 20.5353 36.0443 20.0008L35.1224 18.5374C34.7912 18.0117 34.9488 17.3171 35.4745 16.9859L38.5418 15.0537C39.0675 14.7223 39.7621 14.8799 40.0935 15.4056L41.0154 16.8689C41.6992 16.6786 42.3945 16.5597 43.0908 16.5145L43.4736 14.827C43.6112 14.2213 44.2137 13.8414 44.8197 13.9792L48.3548 14.7816C48.9608 14.9194 49.3404 15.5221 49.2029 16.1277L48.82 17.8151C49.4283 18.1567 50.0043 18.564 50.5388 19.0311L52.0021 18.1091C52.5279 17.778 53.2225 17.9356 53.5541 18.4613L55.4862 21.5285C55.8178 22.0542 55.6597 22.7491 55.1342 23.0802L53.6709 24.0022C53.861 24.686 53.9799 25.3813 54.0254 26.0775L55.7125 26.4604C56.3183 26.5979 56.6982 27.2007 56.5606 27.8065L55.758 31.3417C55.62 31.9478 55.0177 32.3274 54.4119 32.1898L52.7245 31.8068C52.3832 32.4151 51.9758 32.9911 51.5085 33.5256L52.4305 34.9891C52.7619 35.5146 52.6038 36.2095 52.0783 36.5406L49.0111 38.4729C48.4847 38.8041 47.7903 38.6462 47.4593 38.1208ZM62.267 44.5118L61.3266 44.7643C61.3162 45.1568 61.2643 45.5505 61.1724 45.9392L62.0157 46.4256C62.3185 46.6003 62.4226 46.9876 62.2479 47.2908L61.2281 49.0583C61.0529 49.3613 60.6657 49.4652 60.3631 49.2903L59.5199 48.8038C59.2293 49.0779 58.9143 49.3198 58.5797 49.5252L58.8322 50.4658C58.9233 50.8039 58.7223 51.1512 58.3849 51.2415L56.4143 51.7704C56.0762 51.8613 55.7289 51.6605 55.6385 51.3231L55.386 50.3823C54.9935 50.3721 54.5997 50.3207 54.2109 50.2284L53.7244 51.0716C53.5497 51.3744 53.1625 51.4785 52.8595 51.3033L51.092 50.2837C50.7892 50.1088 50.6849 49.7216 50.8596 49.4186L51.3461 48.5753C51.0717 48.2848 50.8303 47.9695 50.6247 47.6351L49.684 47.8876C49.3464 47.9783 48.9988 47.7778 48.9084 47.4401L48.3794 45.4691C48.2888 45.1312 48.4895 44.7837 48.8272 44.6932L49.7678 44.4408C49.7782 44.0484 49.8296 43.6547 49.9215 43.2659L49.0785 42.7794C48.7755 42.6047 48.6714 42.2172 48.8463 41.9142L49.8659 40.1467C50.0408 39.8437 50.4283 39.7399 50.731 39.9146L51.5741 40.401C51.8648 40.1266 52.1796 39.885 52.514 39.6796L52.2615 38.739C52.1708 38.4011 52.3719 38.0538 52.709 37.9634L54.6801 37.4344C55.0179 37.344 55.3652 37.5443 55.4555 37.8821L55.7082 38.8228C56.1005 38.8329 56.4942 38.8846 56.8835 38.9767L57.3693 38.1334C57.5444 37.8304 57.9319 37.7266 58.2345 37.9013L60.002 38.9209C60.305 39.0958 60.4088 39.483 60.2341 39.7858L59.7479 40.629C60.022 40.9196 60.2637 41.2346 60.4693 41.5695L61.4099 41.317C61.7478 41.2263 62.0951 41.4271 62.1853 41.7645L62.7143 43.7353C62.8052 44.0738 62.6044 44.4214 62.267 44.5118ZM76.1271 30.1456L74.8809 30.48C74.8671 31.0002 74.7992 31.522 74.6769 32.0371L75.7943 32.6816C76.1959 32.9133 76.3334 33.4263 76.102 33.8279L74.751 36.17C74.5191 36.5716 74.0061 36.7091 73.6047 36.4776L72.4873 35.8331C72.1022 36.1968 71.6845 36.5169 71.2414 36.7892L71.576 38.0356C71.6962 38.4831 71.4304 38.9435 70.9829 39.0635L68.3717 39.7641C67.924 39.8843 67.4634 39.6189 67.3436 39.1712L67.0092 37.9246C66.489 37.911 65.9675 37.8429 65.4524 37.7208L64.8078 38.8382C64.5761 39.2396 64.0629 39.3773 63.6616 39.1456L61.3194 37.7947C60.9179 37.563 60.7804 37.0495 61.0118 36.6486L61.6566 35.531C61.2929 35.1461 60.9726 34.7286 60.7003 34.2853L59.4541 34.6197C59.0069 34.7399 58.546 34.4743 58.4262 34.0268L57.7256 31.4154C57.6054 30.9677 57.8708 30.5073 58.3185 30.3873L59.5649 30.0529C59.5785 29.5327 59.6466 29.0109 59.7689 28.4958L58.6512 27.8513C58.2499 27.6198 58.1124 27.1066 58.3438 26.7053L59.6948 24.3631C59.9265 23.9616 60.44 23.824 60.8413 24.0555L61.9587 24.7C62.3439 24.3363 62.7613 24.0163 63.2044 23.744L62.8703 22.4978C62.75 22.0501 63.0156 21.5899 63.4629 21.4697L66.0743 20.7688C66.5218 20.6486 66.9822 20.9142 67.1024 21.3621L67.4368 22.6083C67.957 22.6219 68.4788 22.69 68.9936 22.8123L69.6384 21.6949C69.8699 21.2934 70.3831 21.1558 70.7845 21.3873L73.1263 22.7382C73.5279 22.9699 73.6654 23.4832 73.434 23.8843L72.7892 25.0017C73.1529 25.3866 73.4732 25.8041 73.7458 26.2476L74.9917 25.9132C75.4392 25.793 75.8998 26.0586 76.0196 26.5063L76.7204 29.1178C76.8404 29.5655 76.5751 30.0256 76.1271 30.1456Z" fill="black"/>
</svg>
