<svg width="30" height="30" viewBox="0 0 30 30" fill="none" xmlns="http://www.w3.org/2000/svg">
<circle cx="15" cy="15" r="15" fill="white"/>
<g clip-path="url(#clip0_411_167)">
<mask id="mask0_411_167" style="mask-type:luminance" maskUnits="userSpaceOnUse" x="7" y="7" width="17" height="17">
<path d="M24 7H7V24H24V7Z" fill="white"/>
</mask>
<g mask="url(#mask0_411_167)">
<path d="M23.8178 19.8925C23.185 18.6962 20.9874 17.399 20.8907 17.3423C20.6083 17.1816 20.3136 17.0965 20.0379 17.0965C19.6279 17.0965 19.2922 17.2843 19.0889 17.6259C18.7675 18.0104 18.3688 18.4598 18.2721 18.5295C17.5233 19.0375 16.9371 18.9798 16.2885 18.3312L12.6686 14.7111C12.0242 14.0666 11.9649 13.4731 12.4695 12.7284C12.5401 12.6311 12.9895 12.2321 13.374 11.9103C13.6191 11.7644 13.7874 11.5476 13.8612 11.2816C13.9592 10.9277 13.887 10.5113 13.6557 10.1057C13.6012 10.0125 12.3034 7.81458 11.1077 7.18206C10.8846 7.06388 10.6331 7.00148 10.3809 7.00148C9.96557 7.00148 9.57478 7.16347 9.28106 7.45688L8.4812 8.25642C7.21617 9.52113 6.75826 10.9548 7.11942 12.5173C7.42071 13.8195 8.29873 15.2052 9.72952 16.6357L14.3639 21.27C16.1747 23.0809 17.9011 23.9993 19.4952 23.9993C20.6675 23.9993 21.7608 23.501 22.7431 22.5187L23.5427 21.7191C24.0287 21.2335 24.139 20.4992 23.8178 19.8925Z" fill="#BC03CC"/>
</g>
</g>
<defs>
<clipPath id="clip0_411_167">
<rect width="17" height="17" fill="white" transform="translate(7 7)"/>
</clipPath>
</defs>
</svg>
